<svg version="1.2" baseProfile="tiny-ps" xmlns="http://www.w3.org/2000/svg" viewBox="0 0 187 48" width="187" height="48">
	<title>Layer</title>
	<style>
		tspan { white-space:pre }
		.shp0 { opacity: 0.169;fill: #ffd500;stroke: #8c8c8c;stroke-width: 0 } 
		.shp1 { opacity: 0.38;fill: #ffd500;stroke: #8c8c8c;stroke-width: 0 } 
		.shp2 { fill: #032728 } 
		.shp3 { fill: #fad200 } 
		.shp4 { fill: #ffd500 } 
	</style>
	
	
	<g id="Layer">
		<path id="Layer" fill-rule="evenodd" class="shp2" d="M57.27 0C60.2 0 60.47 0 60.84 0.1C61.07 0.16 61.54 0.34 61.88 0.5C62.23 0.66 62.72 0.93 62.97 1.09C63.23 1.25 63.65 1.54 63.9 1.74C64.16 1.94 64.58 2.31 64.84 2.57C65.09 2.82 65.45 3.23 65.63 3.47C65.82 3.71 66.12 4.15 66.31 4.45C66.5 4.75 66.83 5.32 67.05 5.71C67.26 6.1 67.54 6.63 67.9 7.35L68.03 11.78C68.1 14.22 68.16 16.22 68.16 16.22C68.16 16.23 68.31 16.33 68.49 16.44C68.67 16.56 68.82 16.65 68.82 16.66C68.82 16.67 68.3 16.67 66.5 16.67L67.37 16.22L67.33 13.59C67.3 12.15 67.26 10.41 67.23 9.73C67.21 9.05 67.16 8.33 67.13 8.12C67.09 7.91 67.02 7.57 66.96 7.38C66.9 7.18 66.73 6.78 66.58 6.48C66.43 6.18 66.12 5.64 65.88 5.27C65.56 4.79 65.29 4.47 64.88 4.07C64.57 3.77 64.1 3.36 63.85 3.16C63.59 2.96 63.08 2.6 62.7 2.37C62.33 2.13 61.8 1.81 61.53 1.65C61.26 1.5 60.91 1.32 60.76 1.26C60.61 1.19 60.35 1.1 60.19 1.06C60.02 1.02 59.41 0.96 58.82 0.93C58.11 0.89 57.31 0.89 56.39 0.92C55.64 0.95 54.78 1.01 54.48 1.04C54.18 1.07 53.76 1.14 53.54 1.2C53.32 1.26 52.85 1.42 52.5 1.56C52.15 1.7 51.7 1.9 51.5 1.99C51.31 2.09 50.98 2.29 50.77 2.43C50.56 2.57 50.15 2.88 49.87 3.1C49.58 3.33 49.09 3.76 48.78 4.07C48.47 4.37 48.03 4.84 47.8 5.11C47.57 5.38 47.24 5.82 47.07 6.09C46.89 6.37 46.63 6.82 46.5 7.11C46.36 7.39 46.15 7.92 46.03 8.28C45.91 8.65 45.81 9.05 45.81 9.18C45.81 9.34 45.87 9.56 45.98 9.79C46.07 9.98 46.22 10.26 46.32 10.4C46.42 10.54 47.06 11.34 47.74 12.17C48.41 13.01 49.21 13.98 49.51 14.32C49.82 14.67 50.15 15.02 50.25 15.1C50.36 15.17 50.53 15.28 50.63 15.34C50.74 15.39 50.96 15.47 51.12 15.51C51.3 15.56 51.6 15.71 51.86 15.88C52.1 16.04 52.47 16.34 52.69 16.55C52.97 16.82 53.08 16.96 53.09 17.06C53.09 17.18 53.02 17.23 52.19 17.63L52.19 18.02C52.2 18.27 52.26 18.59 52.38 19C52.47 19.33 52.71 20.09 52.9 20.68C53.1 21.28 53.35 22.11 53.47 22.54C53.59 22.97 53.69 23.4 53.69 23.5C53.69 23.6 53.67 23.67 53.63 23.67C53.6 23.67 53.51 23.62 53.43 23.55C53.35 23.47 52.94 22.94 52.52 22.36C52.1 21.77 51.6 21.13 51.4 20.93C51.2 20.72 51.02 20.56 51 20.56C50.98 20.56 50.93 20.62 50.9 20.69C50.86 20.8 50.88 20.96 50.96 21.31C51.02 21.57 51.1 21.89 51.14 22.02C51.19 22.21 51.19 22.26 51.14 22.32C51.08 22.38 51.03 22.37 50.89 22.29C50.79 22.24 50.41 21.93 50.04 21.6C49.68 21.27 49.33 20.97 49.27 20.94C49.21 20.91 49.13 20.9 49.09 20.93C49.05 20.95 49.04 21.07 49.06 21.27C49.07 21.43 49.14 21.69 49.2 21.84C49.27 21.99 49.32 22.21 49.32 22.32C49.32 22.48 49.3 22.53 49.22 22.53C49.17 22.53 49.02 22.46 48.9 22.36C48.77 22.27 48.44 21.99 48.16 21.73C47.88 21.47 47.56 21.21 47.45 21.15C47.34 21.1 47.23 21.05 47.2 21.05C47.18 21.05 47.18 21.14 47.2 21.25C47.21 21.37 47.33 21.7 47.46 21.99C47.58 22.29 47.68 22.61 47.68 22.72C47.68 22.89 47.67 22.91 47.52 22.91C47.42 22.91 47.09 22.77 46.74 22.59C46.4 22.41 46.07 22.25 46 22.23C45.91 22.21 45.88 22.22 45.88 22.29C45.88 22.35 45.94 22.6 46.02 22.85C46.09 23.11 46.15 23.4 46.15 23.5C46.15 23.64 46.13 23.67 46.04 23.67C45.98 23.67 45.72 23.59 45.47 23.48C45.21 23.38 44.96 23.29 44.9 23.29C44.84 23.29 44.77 23.34 44.76 23.39C44.74 23.44 44.79 23.74 44.87 24.04C44.94 24.35 45.01 24.7 45.01 24.82C45.01 24.98 44.98 25.05 44.91 25.08C44.86 25.09 44.74 25.08 44.65 25.04C44.56 25 44.25 24.81 43.97 24.62C43.68 24.43 43.37 24.26 43.28 24.24C43.15 24.22 43.1 24.24 43.02 24.34C42.97 24.41 42.93 24.52 42.93 24.58C42.93 24.64 42.98 24.86 43.05 25.07C43.12 25.29 43.17 25.61 43.17 25.83C43.18 26.18 43.16 26.22 43.04 26.29C42.91 26.37 42.86 26.36 42.38 26.2C42.1 26.1 41.8 26.03 41.71 26.03C41.6 26.03 41.56 26.05 41.56 26.14C41.56 26.2 41.66 26.48 41.77 26.77C41.94 27.21 41.96 27.3 41.89 27.34C41.85 27.36 41.71 27.36 41.59 27.33C41.47 27.3 41.15 27.19 40.88 27.09C40.61 26.98 40.38 26.91 40.38 26.91C40.37 26.92 40.51 27.24 40.7 27.63C40.98 28.19 41.03 28.34 40.98 28.39C40.92 28.45 40.79 28.44 40.32 28.38C39.76 28.31 39.73 28.31 39.54 28.41C39.43 28.47 39.24 28.69 39.07 28.94C38.91 29.17 38.78 29.39 38.78 29.42C38.78 29.45 38.86 29.55 38.96 29.64C39.05 29.73 39.22 29.83 39.32 29.86C39.43 29.9 39.63 29.93 39.76 29.93C39.9 29.93 40.19 29.91 40.8 29.83L40.8 29.99C40.8 30.08 40.76 30.34 40.7 30.58C40.65 30.81 40.63 31.02 40.65 31.04C40.68 31.06 40.9 31.02 41.14 30.93C41.39 30.85 41.63 30.78 41.69 30.78C41.74 30.78 41.8 30.83 41.83 30.88C41.86 30.93 41.89 31.16 41.91 31.39C41.93 31.61 41.97 31.87 42 31.96C42.03 32.05 42.08 32.14 42.12 32.16C42.16 32.18 42.29 32.15 42.41 32.09C42.53 32.04 42.74 31.9 42.88 31.78C43.01 31.67 43.24 31.48 43.39 31.37C43.54 31.25 43.72 31.16 43.78 31.16C43.88 31.17 43.88 31.19 43.84 31.99C43.81 32.68 43.82 32.82 43.89 32.89C43.93 32.93 44.03 32.97 44.1 32.97C44.18 32.97 44.33 32.93 44.45 32.87C44.56 32.81 44.82 32.58 45.03 32.35C45.25 32.1 45.47 31.91 45.55 31.89C45.64 31.88 45.7 31.89 45.73 31.94C45.76 31.98 45.76 32.14 45.75 32.29C45.73 32.44 45.59 32.93 45.43 33.39C45.2 34.04 45.16 34.24 45.21 34.29C45.26 34.35 45.32 34.34 45.51 34.22C45.64 34.14 45.98 33.87 46.26 33.63C46.55 33.38 46.93 33.08 47.11 32.96C47.29 32.85 47.48 32.75 47.54 32.75C47.61 32.75 47.7 32.8 47.75 32.85C47.8 32.9 47.85 32.99 47.85 33.05C47.84 33.11 47.77 33.3 47.69 33.46C47.6 33.63 47.39 33.97 47.22 34.23C47.05 34.48 46.86 34.82 46.81 34.98C46.75 35.14 46.7 35.32 46.7 35.38C46.7 35.44 46.74 35.49 46.78 35.49C46.83 35.49 46.94 35.42 47.04 35.34C47.14 35.26 47.56 34.86 47.98 34.46C48.4 34.05 48.89 33.62 49.06 33.48C49.23 33.35 49.42 33.24 49.47 33.24C49.55 33.24 49.56 33.27 49.53 33.45C49.51 33.56 49.4 33.85 49.3 34.09C49.2 34.33 48.94 34.91 48.72 35.38C48.5 35.84 48.32 36.28 48.32 36.35C48.31 36.43 48.36 36.52 48.42 36.56C48.52 36.63 48.55 36.62 48.77 36.46C48.9 36.36 49.25 35.96 49.55 35.57C49.85 35.18 50.31 34.59 50.58 34.27C50.85 33.95 51.19 33.58 51.34 33.46C51.49 33.34 51.65 33.24 51.7 33.24C51.74 33.24 51.79 33.27 51.81 33.3C51.82 33.33 51.79 33.52 51.73 33.72C51.68 33.93 51.46 34.53 51.25 35.08C51.03 35.62 50.81 36.23 50.74 36.44C50.68 36.65 50.62 36.93 50.62 37.05C50.61 37.18 50.62 37.3 50.64 37.33C50.67 37.35 50.74 37.32 50.8 37.26C50.86 37.2 51.08 36.91 51.28 36.61C51.49 36.31 52.07 35.41 52.57 34.61C53.07 33.81 53.59 33.03 53.72 32.86C53.85 32.7 54 32.52 54.07 32.47C54.13 32.41 54.21 32.38 54.24 32.4C54.27 32.41 54.28 32.5 54.25 32.6C54.24 32.7 54.12 33.07 54 33.44C53.88 33.8 53.59 34.6 53.35 35.21C53.11 35.83 52.78 36.73 52.62 37.21C52.46 37.69 52.33 38.14 52.32 38.21C52.32 38.28 52.36 38.33 52.4 38.33C52.45 38.33 52.57 38.24 52.68 38.14C52.78 38.03 53 37.72 53.16 37.44C53.33 37.16 53.69 36.49 53.98 35.95C54.26 35.41 54.71 34.54 54.97 34.01C55.24 33.48 55.56 32.86 55.7 32.62C55.83 32.37 56.03 32.05 56.13 31.89C56.23 31.73 56.34 31.6 56.37 31.6C56.4 31.6 56.42 31.68 56.42 31.78C56.42 31.88 56.32 32.32 56.2 32.75C56.09 33.19 55.76 34.26 55.47 35.13C55.19 36 54.9 36.96 54.84 37.26C54.74 37.73 54.72 37.95 54.75 39.84L54.59 40.09C54.5 40.23 54.23 40.58 53.99 40.88C53.75 41.18 53.36 41.71 53.12 42.07C52.88 42.43 52.54 42.88 52.38 43.08C52.15 43.36 51.99 43.49 51.69 43.63C51.49 43.74 50.97 43.93 50.55 44.06C50.13 44.18 49.44 44.37 49.02 44.48C48.6 44.58 48 44.72 47.68 44.78C47.37 44.84 46.75 44.93 46.32 44.98C45.7 45.05 45.26 45.06 44.35 45.04C43.7 45.02 42.92 44.97 42.6 44.92C42.29 44.87 41.82 44.79 41.56 44.73C41.31 44.66 40.89 44.55 40.64 44.47C40.38 44.4 39.94 44.25 39.65 44.14C39.37 44.03 38.99 43.86 38.81 43.74C38.63 43.63 38.27 43.39 38.01 43.21C37.76 43.03 37.21 42.58 36.79 42.2C36.36 41.83 35.58 41.09 35.04 40.57C34.5 40.04 33.77 39.34 33.43 39.01C33.08 38.68 32.66 38.31 32.5 38.18C32.33 38.06 32.14 37.94 32.06 37.92C31.95 37.89 31.89 37.93 31.69 38.13C31.56 38.27 31.45 38.45 31.43 38.53C31.41 38.62 31.3 38.99 31.17 39.37C31.05 39.74 30.86 40.25 30.75 40.49C30.63 40.73 30.48 41 30.4 41.08C30.32 41.16 30.23 41.22 30.19 41.21C30.15 41.2 30.08 41.13 30.04 41.05C29.97 40.92 29.97 40.79 30.06 39.85C30.14 39.09 30.15 38.73 30.11 38.58C30.06 38.37 30.05 38.36 29.87 38.37C29.77 38.38 29.56 38.44 29.41 38.52C29.26 38.59 28.9 38.83 28.62 39.05C28.33 39.27 27.73 39.76 27.27 40.14C26.81 40.53 26.33 40.92 26.2 41.01C26.08 41.1 25.93 41.18 25.88 41.17C25.82 41.17 25.75 41.11 25.72 41.02C25.68 40.92 25.68 40.8 25.72 40.63C25.76 40.49 25.92 40.07 26.08 39.7C26.24 39.32 26.4 38.91 26.44 38.78C26.51 38.58 26.51 38.54 26.44 38.47C26.39 38.43 26.03 38.28 25.64 38.14C25.25 38 24.7 37.82 24.41 37.75C24.13 37.68 23.78 37.62 23.65 37.62C23.51 37.62 23.07 37.68 22.67 37.76C22.26 37.83 21.76 37.9 21.55 37.91C21.21 37.92 21.17 37.91 21.15 37.81C21.14 37.74 21.2 37.63 21.31 37.52C21.41 37.42 21.76 37.14 22.09 36.91C22.42 36.67 22.79 36.38 22.9 36.26C23.01 36.13 23.13 35.97 23.16 35.9C23.19 35.82 23.2 35.69 23.18 35.61C23.16 35.53 23.08 35.34 23.01 35.2C22.9 34.97 22.84 34.92 22.52 34.77C22.26 34.65 21.89 34.54 21.33 34.44C20.88 34.35 20.25 34.22 19.94 34.14C19.62 34.07 19.31 33.97 19.24 33.93C19.17 33.88 19.1 33.78 19.08 33.7C19.06 33.6 19.07 33.53 19.12 33.51C19.16 33.49 19.52 33.41 19.91 33.33C20.3 33.26 20.93 33.14 21.3 33.08C21.68 33.01 21.99 32.95 22 32.94C22.01 32.93 21.95 32.79 21.87 32.63C21.79 32.47 21.62 32.18 21.49 31.99C21.36 31.79 21.14 31.52 20.99 31.39C20.84 31.25 20.35 30.93 19.9 30.67C19.45 30.41 18.76 30.02 18.37 29.81C17.97 29.59 17.65 29.4 17.66 29.38C17.67 29.35 17.82 29.31 17.98 29.29C18.14 29.27 18.51 29.2 18.8 29.14C19.1 29.08 19.46 28.98 19.62 28.9C19.78 28.83 19.97 28.7 20.06 28.62C20.14 28.53 20.26 28.34 20.32 28.19C20.39 28.04 20.44 27.83 20.45 27.74C20.45 27.6 20.4 27.51 20.24 27.34C20.12 27.22 19.88 27.04 19.72 26.95C19.55 26.86 19.35 26.71 19.27 26.64C19.18 26.56 19.11 26.44 19.12 26.37C19.12 26.3 19.14 26.2 19.17 26.14C19.21 26.05 19.28 26.03 19.46 26.03C19.59 26.03 19.99 26.1 20.36 26.19C20.73 26.28 21.1 26.35 21.19 26.35C21.28 26.35 21.41 26.33 21.48 26.29C21.55 26.26 21.69 26.14 21.81 26.03C21.94 25.91 22.01 25.78 22.01 25.7C22.01 25.62 21.89 25.38 21.73 25.15C21.58 24.93 21.31 24.57 21.15 24.36C20.98 24.15 20.64 23.77 19.94 23.05L19.38 23.6C19.07 23.9 18.21 24.73 17.48 25.46C16.74 26.18 15.99 26.9 15.8 27.05C15.61 27.21 15.43 27.34 15.4 27.34C15.37 27.34 15.33 27.31 15.31 27.27C15.29 27.23 15.25 27.07 15.23 26.9C15.2 26.68 15.15 26.57 15.06 26.5C14.97 26.43 14.89 26.41 14.75 26.43C14.64 26.45 14.24 26.63 13.85 26.82C13.46 27.01 12.87 27.31 12.55 27.49C12.16 27.7 11.94 27.78 11.91 27.75C11.88 27.72 11.84 27.47 11.77 26.7L11.28 27.08C11.01 27.29 10.67 27.52 10.53 27.59C10.39 27.66 10.22 27.72 10.16 27.72C10.1 27.72 10.01 27.68 9.97 27.64C9.92 27.59 9.89 27.46 9.89 27.3C9.89 27.15 9.94 26.88 10 26.68C10.06 26.49 10.1 26.29 10.08 26.25C10.05 26.18 9.98 26.17 9.71 26.2C9.44 26.23 9.21 26.32 8.6 26.63C7.97 26.95 7.78 27.03 7.52 27.04C7.26 27.06 7.2 27.05 7.18 26.97C7.15 26.91 7.23 26.74 7.41 26.49C7.56 26.28 7.74 26 7.8 25.88C7.87 25.75 7.92 25.61 7.92 25.56C7.92 25.52 7.87 25.48 7.81 25.48C7.75 25.48 7.36 25.65 6.95 25.86C6.54 26.08 6.08 26.29 5.93 26.33C5.78 26.37 5.58 26.4 5.49 26.38C5.4 26.37 5.29 26.32 5.26 26.27C5.21 26.22 5.21 26.16 5.24 26.09C5.26 26.04 5.51 25.75 5.8 25.45C6.08 25.14 6.36 24.79 6.53 24.44L6.42 24.33C6.36 24.27 6.22 24.19 6.12 24.16C5.97 24.11 5.85 24.12 5.63 24.17C5.46 24.2 5 24.35 4.6 24.5C4.2 24.65 3.79 24.77 3.69 24.77C3.55 24.77 3.5 24.74 3.5 24.69C3.5 24.64 3.54 24.51 3.6 24.4C3.66 24.29 3.94 23.87 4.23 23.48C4.53 23.09 4.79 22.73 4.81 22.68C4.85 22.6 4.84 22.59 4.74 22.61C4.67 22.63 4.36 22.76 4.04 22.89C3.73 23.03 3.3 23.2 3.09 23.27C2.88 23.34 2.59 23.4 2.46 23.4C2.3 23.4 2.18 23.36 2.11 23.3C2.06 23.25 2.02 23.13 2.02 23.03C2.02 22.93 2.06 22.82 2.12 22.77C2.17 22.72 2.4 22.57 2.62 22.42C2.85 22.28 3.17 22.05 3.65 21.68L3.31 21.19C3.13 20.92 2.91 20.65 2.82 20.59C2.68 20.48 2.61 20.48 1.66 20.49C0.8 20.5 0.66 20.49 0.66 20.42C0.66 20.38 0.8 20.19 0.97 20C1.15 19.81 1.37 19.53 1.47 19.38C1.58 19.23 1.71 18.99 1.76 18.85C1.81 18.71 1.86 18.47 1.86 18.32C1.86 18.1 1.83 18.02 1.73 17.95C1.66 17.89 1.46 17.81 1.28 17.76C1.1 17.71 0.82 17.64 0.66 17.61C0.49 17.58 0.28 17.5 0.18 17.44C0.03 17.35 0 17.3 0 17.14C0 17 0.04 16.92 0.15 16.84C0.23 16.78 0.5 16.67 0.74 16.59C0.98 16.52 1.26 16.41 1.36 16.34C1.46 16.27 1.59 16.15 1.65 16.07C1.7 16 1.76 15.85 1.78 15.75C1.8 15.61 1.78 15.5 1.7 15.38C1.63 15.28 1.43 15.09 1.24 14.96C1.05 14.82 0.78 14.63 0.64 14.52C0.5 14.41 0.32 14.23 0.24 14.12C0.17 14.01 0.08 13.8 0.05 13.67C0.02 13.53 0.01 13.35 0.03 13.27C0.05 13.14 0.08 13.12 0.26 13.12C0.37 13.12 0.83 13.25 1.28 13.4C1.77 13.57 2.25 13.69 2.46 13.71C2.7 13.73 2.87 13.72 3 13.66C3.1 13.62 3.23 13.52 3.29 13.45C3.34 13.37 3.39 13.29 3.39 13.26C3.39 13.23 3.27 13.02 3.12 12.79C2.98 12.57 2.64 12.14 2.38 11.84C2.12 11.54 1.79 11.11 1.64 10.89C1.43 10.59 1.37 10.45 1.36 10.29C1.36 10.18 1.39 10.06 1.43 10.02C1.47 9.98 1.55 9.95 1.61 9.95C1.67 9.95 1.9 10.08 2.13 10.23C2.36 10.39 2.76 10.69 3.03 10.91C3.3 11.13 3.79 11.48 4.12 11.7C4.45 11.91 4.97 12.21 5.27 12.36C5.57 12.51 6.26 12.82 6.8 13.06C7.34 13.3 8.35 13.76 9.04 14.09C9.73 14.42 10.63 14.84 11.03 15.01C11.44 15.18 12.1 15.44 12.51 15.59C12.91 15.74 13.65 15.99 14.15 16.14C14.64 16.29 15.27 16.46 15.54 16.51C15.81 16.57 16.34 16.65 16.71 16.7C17.09 16.75 17.62 16.78 17.89 16.78C18.16 16.78 18.55 16.76 18.76 16.73C18.97 16.7 19.45 16.6 19.83 16.51C20.2 16.42 20.85 16.23 21.27 16.09C21.69 15.95 22.46 15.68 22.97 15.49C23.48 15.3 24.15 15.03 24.47 14.89C24.78 14.75 25.27 14.51 25.55 14.36C25.82 14.21 26.04 14.06 26.02 14.04C26.01 14.01 25.86 13.97 25.68 13.94C25.51 13.9 25.3 13.84 25.21 13.79C25.12 13.75 25 13.67 24.95 13.62C24.89 13.57 24.85 13.49 24.85 13.44C24.85 13.38 24.92 13.29 25 13.23C25.08 13.17 25.25 13.11 25.37 13.09C25.49 13.07 25.71 13.01 25.86 12.95C26.01 12.9 26.17 12.81 26.22 12.76C26.29 12.68 26.28 12.66 26.13 12.54C26.04 12.47 25.85 12.37 25.7 12.32C25.55 12.27 25.36 12.17 25.27 12.1C25.19 12.03 25.12 11.93 25.12 11.88C25.12 11.82 25.19 11.75 25.27 11.71C25.36 11.67 25.65 11.61 25.92 11.59C26.19 11.56 26.48 11.51 26.56 11.47C26.64 11.43 26.71 11.37 26.71 11.34C26.71 11.31 26.58 11.17 26.42 11.02C26.26 10.87 25.86 10.56 25.52 10.33C25.18 10.11 24.9 9.89 24.9 9.85C24.9 9.81 25 9.78 25.14 9.76C25.27 9.75 25.57 9.72 25.81 9.71C26.05 9.69 26.37 9.64 26.53 9.6C26.69 9.55 26.83 9.49 26.84 9.46C26.86 9.43 26.81 9.31 26.74 9.2C26.66 9.09 26.38 8.77 26.11 8.5C25.84 8.23 25.62 7.99 25.62 7.97C25.62 7.95 26.02 7.93 26.5 7.92C26.99 7.92 27.5 7.9 27.64 7.87C27.77 7.84 27.94 7.76 28.01 7.7C28.08 7.62 28.13 7.51 28.13 7.41C28.13 7.32 28.09 7.18 28.04 7.11C27.99 7.03 27.66 6.67 27.31 6.31C26.96 5.95 26.65 5.6 26.63 5.52C26.6 5.42 26.62 5.36 26.69 5.29C26.75 5.23 26.86 5.19 26.95 5.19C27.04 5.19 27.28 5.24 27.47 5.29C27.67 5.35 28.12 5.51 28.48 5.64C28.84 5.78 29.28 5.92 29.45 5.97C29.62 6.01 29.78 6.03 29.8 6.01C29.81 6 29.81 5.91 29.8 5.82C29.78 5.73 29.59 5.39 29.38 5.06C29.16 4.72 28.93 4.33 28.86 4.18C28.79 4.03 28.73 3.85 28.73 3.77C28.73 3.7 28.76 3.6 28.79 3.57C28.83 3.53 28.95 3.5 29.05 3.5C29.17 3.5 29.35 3.57 29.52 3.67C29.67 3.76 30.15 4.1 30.59 4.42C31.02 4.74 31.56 5.09 31.77 5.21C32.05 5.35 32.24 5.41 32.4 5.41C32.53 5.41 32.66 5.39 32.7 5.37C32.75 5.34 32.66 5.1 32.4 4.54C32.13 3.95 32.04 3.68 32.04 3.5C32.03 3.33 32.06 3.25 32.12 3.23C32.16 3.22 32.33 3.27 32.5 3.34C32.66 3.41 33.4 3.88 34.13 4.39C34.87 4.9 35.66 5.4 35.88 5.51C36.18 5.65 36.4 5.71 36.66 5.74C36.97 5.76 37.05 5.79 37.21 5.94C37.3 6.04 37.47 6.26 37.57 6.43C37.68 6.61 37.85 6.87 38.15 7.28L38.62 6.81C38.88 6.55 39.13 6.34 39.17 6.34C39.21 6.34 39.49 6.67 39.79 7.06C40.09 7.46 40.47 7.93 40.64 8.11C40.83 8.31 41.05 8.49 41.26 8.59C41.44 8.67 41.75 8.78 41.95 8.83C42.14 8.87 42.55 8.94 42.86 8.99C43.17 9.04 43.59 9.07 43.8 9.07C44.18 9.07 44.19 9.07 44.44 8.84C44.58 8.71 44.81 8.41 44.95 8.17C45.09 7.93 45.41 7.37 45.66 6.91C45.91 6.46 46.23 5.89 46.39 5.63C46.54 5.37 46.86 4.87 47.1 4.51C47.34 4.15 47.69 3.67 47.88 3.44C48.07 3.22 48.4 2.87 48.62 2.67C48.84 2.47 49.18 2.19 49.37 2.04C49.57 1.89 49.94 1.66 50.19 1.52C50.45 1.38 50.98 1.12 51.37 0.94C51.76 0.76 52.32 0.52 52.62 0.41C52.92 0.3 53.38 0.16 53.63 0.1C54.05 0.02 54.42 0 57.27 0L57.27 0ZM39.78 11.33C39.69 11.43 39.53 11.64 39.42 11.81C39.32 11.97 39.19 12.21 39.14 12.34C39.09 12.47 39.05 12.64 39.05 12.72C39.05 12.81 39.1 12.97 39.15 13.09C39.21 13.21 39.39 13.45 39.56 13.63C39.73 13.8 40.01 14.04 40.19 14.15C40.36 14.27 40.66 14.45 40.85 14.55C41.05 14.66 41.31 14.78 41.44 14.83C41.57 14.88 41.67 14.95 41.67 14.98C41.67 15.01 41.86 15.04 42.11 15.04C42.43 15.04 42.58 15.01 42.64 14.95C42.69 14.9 42.83 14.87 43.1 14.87C43.31 14.87 43.76 14.83 44.12 14.79C44.47 14.74 44.92 14.67 45.11 14.62C45.31 14.57 45.59 14.47 45.74 14.39C45.94 14.28 46.02 14.21 46.03 14.11C46.04 14.03 45.98 13.85 45.9 13.7C45.82 13.55 45.6 13.23 45.42 12.98C45.23 12.74 44.9 12.36 44.69 12.12C44.3 11.71 44.3 11.7 44.3 11.4L44.3 11.1C43.29 11.1 43.01 11.06 42.59 10.96C42.28 10.88 41.81 10.81 41.54 10.8C41.22 10.78 40.91 10.8 40.66 10.85C40.45 10.9 40.21 10.98 40.12 11.04C40.03 11.1 39.88 11.23 39.78 11.33ZM105.55 3.12C106.51 3.12 107.56 3.14 107.87 3.17C108.19 3.2 108.53 3.27 108.63 3.32C108.76 3.38 108.84 3.47 108.86 3.58C108.89 3.67 108.93 4.2 108.96 4.75C108.99 5.31 109.03 8.09 109.06 10.92C109.08 13.76 109.11 16.07 109.13 16.07C109.14 16.07 109.35 15.88 109.59 15.63C109.83 15.39 110.24 15.05 110.51 14.87C110.77 14.69 111.1 14.51 111.24 14.47C111.39 14.42 111.71 14.36 111.97 14.32C112.23 14.28 112.6 14.27 112.81 14.29C113.02 14.31 113.36 14.37 113.55 14.43C113.75 14.48 114.05 14.59 114.23 14.66C114.41 14.74 114.74 14.92 114.97 15.07C115.19 15.21 115.53 15.48 115.72 15.66C115.93 15.85 116.23 16.23 116.44 16.54C116.64 16.84 116.94 17.37 117.11 17.72C117.28 18.06 117.53 18.66 117.66 19.05C117.8 19.45 117.99 20.11 118.1 20.53C118.21 20.95 118.34 21.53 118.38 21.82C118.43 22.1 118.51 22.75 118.57 23.26C118.63 23.78 118.71 24.6 118.74 25.1C118.79 25.68 118.8 26.62 118.78 27.78C118.76 28.75 118.72 29.8 118.69 30.1C118.65 30.4 118.57 31 118.49 31.44C118.42 31.88 118.27 32.59 118.17 33.03C118.07 33.46 117.91 34.06 117.81 34.37C117.71 34.67 117.52 35.17 117.39 35.49C117.26 35.8 117.03 36.28 116.89 36.55C116.75 36.82 116.5 37.24 116.32 37.47C116.15 37.7 115.81 38.1 115.56 38.34C115.25 38.65 114.98 38.86 114.72 38.99C114.51 39.1 114.16 39.26 113.93 39.35C113.55 39.49 113.47 39.5 112.73 39.5C111.98 39.5 111.92 39.49 111.5 39.34C111.26 39.25 110.85 39.03 110.59 38.86C110.33 38.69 109.92 38.38 109.27 37.81L109.14 37.97C109.07 38.06 108.9 38.27 108.77 38.43C108.57 38.65 108.47 38.73 108.24 38.8C108.02 38.87 107.61 38.89 106.45 38.92C105.61 38.93 104.56 38.92 104.07 38.88C103.51 38.85 103.11 38.79 102.93 38.73C102.78 38.67 102.61 38.57 102.55 38.49C102.47 38.41 102.4 38.21 102.36 37.97C102.33 37.76 102.27 37.12 102.24 36.55C102.2 35.9 102.17 30.22 102.15 21.24C102.13 11.3 102.14 6.5 102.19 5.44C102.22 4.6 102.28 3.79 102.31 3.64C102.38 3.4 102.4 3.36 102.6 3.3C102.72 3.26 103.04 3.2 103.31 3.18C103.58 3.15 104.59 3.13 105.55 3.12L105.55 3.12ZM109.4 23.29C109.34 23.49 109.26 23.92 109.24 24.25C109.21 24.58 109.18 25.7 109.18 26.74C109.18 27.77 109.21 28.91 109.24 29.25C109.27 29.65 109.35 30.03 109.43 30.29C109.51 30.52 109.63 30.81 109.71 30.95C109.79 31.08 109.94 31.29 110.05 31.4C110.16 31.52 110.3 31.64 110.37 31.66C110.45 31.7 110.55 31.69 110.67 31.64C110.77 31.6 110.93 31.47 111.03 31.35C111.13 31.24 111.29 30.97 111.39 30.76C111.5 30.55 111.62 30.21 111.66 30.02C111.71 29.82 111.78 29.22 111.81 28.68C111.85 28.09 111.86 27.08 111.84 26.16C111.82 25.32 111.78 24.45 111.75 24.22C111.71 24 111.62 23.64 111.54 23.43C111.46 23.22 111.29 22.9 111.17 22.72C111.05 22.54 110.88 22.34 110.79 22.27C110.7 22.21 110.56 22.14 110.47 22.12C110.37 22.1 110.23 22.12 110.13 22.17C110.03 22.22 109.87 22.38 109.73 22.59C109.61 22.78 109.46 23.1 109.4 23.29ZM85.49 14.35C85.75 14.4 86.1 14.48 86.26 14.54C86.41 14.6 86.71 14.77 86.92 14.92C87.13 15.06 87.51 15.37 88.21 16.02L88.51 15.61C88.71 15.34 88.88 15.17 89.01 15.1C89.2 15.02 89.46 15.01 91.43 14.99C92.88 14.98 93.8 15 94.11 15.04C94.36 15.07 94.66 15.14 94.76 15.2C94.87 15.25 94.99 15.34 95.04 15.4C95.09 15.45 95.16 15.59 95.19 15.69C95.23 15.8 95.29 16.21 95.32 16.62C95.37 17.17 95.39 19.66 95.39 26.52C95.38 32.55 95.36 36.03 95.32 36.72C95.29 37.29 95.23 37.89 95.19 38.06C95.15 38.25 95.07 38.42 94.96 38.54C94.85 38.66 94.69 38.75 94.49 38.81C94.25 38.87 93.79 38.9 92.33 38.92C91.16 38.93 90.27 38.92 89.92 38.88C89.57 38.85 89.24 38.77 89.07 38.7C88.88 38.61 88.69 38.47 88.18 37.89L87.61 38.37C87.29 38.64 86.89 38.94 86.71 39.05C86.53 39.16 86.22 39.31 86.02 39.37C85.75 39.47 85.5 39.5 84.99 39.52C84.41 39.54 84.23 39.53 83.84 39.43C83.58 39.36 83.23 39.23 83.05 39.13C82.87 39.03 82.53 38.8 82.31 38.62C82.08 38.44 81.79 38.17 81.65 38.02C81.51 37.88 81.25 37.56 81.08 37.32C80.91 37.08 80.65 36.67 80.49 36.42C80.34 36.16 80.14 35.74 80.03 35.49C79.93 35.23 79.74 34.65 79.61 34.2C79.48 33.75 79.3 33.1 79.22 32.75C79.14 32.41 79.03 31.85 78.98 31.52C78.92 31.19 78.85 30.55 78.81 30.1C78.76 29.53 78.75 28.64 78.78 27.23C78.8 26.1 78.84 24.72 78.87 24.17C78.9 23.61 78.96 22.79 79.01 22.34C79.05 21.88 79.13 21.31 79.17 21.05C79.22 20.79 79.41 20.14 79.59 19.6C79.77 19.06 80.03 18.36 80.17 18.04C80.31 17.73 80.6 17.21 80.8 16.89C81.01 16.58 81.34 16.15 81.54 15.94C81.74 15.74 82.1 15.42 82.34 15.23C82.58 15.04 82.87 14.83 82.99 14.75C83.11 14.68 83.32 14.57 83.46 14.52C83.59 14.47 83.86 14.4 84.06 14.35C84.25 14.31 84.55 14.28 84.71 14.27C84.88 14.27 85.23 14.31 85.49 14.35ZM86.39 22.35C86.33 22.4 86.24 22.52 86.19 22.61C86.13 22.7 86.02 23.01 85.95 23.29C85.87 23.58 85.76 24.09 85.7 24.44C85.64 24.79 85.57 25.46 85.54 25.94C85.5 26.55 85.49 27.08 85.53 27.67C85.56 28.13 85.64 28.82 85.7 29.2C85.76 29.57 85.87 30.1 85.94 30.37C86.01 30.64 86.13 30.99 86.2 31.14C86.28 31.29 86.41 31.48 86.5 31.56C86.58 31.64 86.72 31.73 86.8 31.76C86.91 31.81 87 31.8 87.13 31.75C87.23 31.71 87.39 31.58 87.49 31.46C87.6 31.34 87.75 31.1 87.83 30.92C87.92 30.74 88.02 30.42 88.06 30.21C88.11 29.93 88.13 29.05 88.13 26.96C88.13 24.91 88.11 23.97 88.06 23.69C88.02 23.47 87.95 23.19 87.91 23.06C87.86 22.93 87.76 22.73 87.68 22.61C87.59 22.49 87.41 22.33 87.28 22.24C87.14 22.16 86.98 22.09 86.92 22.09C86.86 22.09 86.74 22.13 86.65 22.18C86.56 22.22 86.44 22.3 86.39 22.35L86.39 22.35ZM153.53 14.46C153.76 14.51 154.16 14.64 154.43 14.74C154.7 14.85 155.37 15.16 155.91 15.44C156.45 15.72 157.14 16.1 157.45 16.3C157.76 16.49 158.24 16.82 158.52 17.02C158.87 17.28 159.01 17.42 159 17.48C158.99 17.54 158.76 18.09 158.5 18.73C158.24 19.36 157.86 20.24 157.66 20.69C157.45 21.15 157.2 21.7 157.08 21.93C156.97 22.15 156.76 22.49 156.62 22.68C156.48 22.87 156.32 23.05 156.25 23.08C156.18 23.12 156.02 23.13 155.88 23.11C155.74 23.09 155.41 22.97 155.14 22.83C154.87 22.69 154.43 22.46 154.16 22.31C153.89 22.16 153.47 21.95 153.23 21.85C152.99 21.75 152.62 21.62 152.41 21.57C152.17 21.51 151.97 21.49 151.87 21.51C151.78 21.54 151.61 21.64 151.5 21.75C151.37 21.88 151.3 22 151.29 22.1C151.29 22.19 151.33 22.33 151.37 22.42C151.42 22.51 151.58 22.68 151.74 22.81C151.9 22.93 152.25 23.16 152.52 23.32C152.79 23.48 153.34 23.78 153.75 24C154.16 24.22 154.79 24.6 155.17 24.85C155.55 25.1 156.01 25.44 156.2 25.62C156.39 25.8 156.73 26.18 156.94 26.46C157.16 26.75 157.43 27.16 157.55 27.37C157.66 27.58 157.84 27.93 157.93 28.16C158.03 28.38 158.15 28.75 158.2 28.98C158.25 29.21 158.3 29.76 158.32 30.24C158.34 30.7 158.32 31.51 158.29 32.04C158.26 32.57 158.19 33.23 158.14 33.52C158.1 33.8 158 34.2 157.92 34.39C157.84 34.59 157.62 35.06 157.43 35.43C157.24 35.81 156.95 36.32 156.77 36.56C156.6 36.81 156.28 37.2 156.07 37.44C155.86 37.67 155.51 38 155.3 38.15C155.09 38.31 154.58 38.62 154.16 38.82C153.74 39.03 153.17 39.26 152.9 39.34C152.63 39.42 152.22 39.5 151.97 39.53C151.7 39.56 151.34 39.56 151.02 39.53C150.73 39.5 150.35 39.45 150.17 39.42C149.99 39.39 149.64 39.3 149.38 39.23C149.12 39.15 148.63 38.99 148.29 38.86C147.94 38.74 147.35 38.48 146.98 38.29C146.6 38.1 146.05 37.78 145.75 37.58C145.45 37.38 144.98 37.05 144.71 36.85C144.44 36.65 144.17 36.44 144.12 36.38C144.03 36.28 144.05 36.21 144.74 34.37C145.14 33.31 145.61 32.12 145.79 31.71C145.97 31.31 146.2 30.84 146.51 30.37L146.81 30.38C147.06 30.38 147.2 30.42 147.58 30.61C147.83 30.74 148.25 30.98 148.51 31.14C148.76 31.29 149.14 31.51 149.35 31.62C149.56 31.72 149.91 31.87 150.13 31.95C150.35 32.03 150.64 32.1 150.79 32.1C150.93 32.1 151.13 32.07 151.24 32.04C151.34 32.02 151.51 31.91 151.61 31.8C151.71 31.68 151.78 31.55 151.78 31.45C151.79 31.35 151.73 31.25 151.61 31.13C151.51 31.04 151.28 30.86 151.1 30.74C150.92 30.62 150.45 30.35 150.06 30.13C149.67 29.91 149.08 29.55 148.75 29.33C148.42 29.11 147.89 28.72 147.58 28.47C147.26 28.22 146.84 27.83 146.63 27.61C146.42 27.38 146.15 27.05 146.02 26.87C145.89 26.69 145.7 26.37 145.59 26.16C145.49 25.95 145.35 25.63 145.29 25.45C145.24 25.27 145.13 24.88 145.07 24.58C145 24.28 144.91 23.78 144.87 23.48C144.83 23.18 144.79 22.68 144.79 22.38C144.79 22.07 144.83 21.54 144.87 21.2C144.92 20.86 145.02 20.34 145.09 20.04C145.16 19.74 145.32 19.21 145.45 18.86C145.57 18.52 145.75 18.06 145.86 17.85C145.96 17.64 146.21 17.25 146.42 16.98C146.62 16.71 146.96 16.31 147.17 16.1C147.38 15.89 147.79 15.55 148.07 15.35C148.36 15.15 148.81 14.87 149.08 14.74C149.35 14.6 149.74 14.46 149.95 14.41C150.26 14.34 150.62 14.33 151.73 14.35C152.77 14.36 153.22 14.39 153.53 14.46ZM170.24 14.33C170.41 14.33 170.94 14.35 171.42 14.38C171.98 14.42 172.48 14.49 172.81 14.57C173.2 14.67 173.63 14.85 174.53 15.3C175.19 15.63 176.02 16.07 176.36 16.28C176.71 16.49 177.22 16.83 177.5 17.04C177.77 17.25 178 17.45 178 17.5C178 17.54 177.68 18.32 177.28 19.22C176.89 20.12 176.41 21.19 176.21 21.6C176.02 22 175.76 22.49 175.63 22.69C175.5 22.89 175.33 23.08 175.26 23.12C175.15 23.19 175.08 23.19 174.78 23.11C174.58 23.06 174.2 22.89 173.93 22.74C173.66 22.59 173.12 22.31 172.73 22.12C172.32 21.91 171.83 21.71 171.58 21.65C171.34 21.59 171 21.54 170.83 21.54C170.55 21.54 170.51 21.56 170.41 21.69C170.35 21.78 170.3 21.92 170.3 22.01C170.3 22.1 170.37 22.28 170.46 22.42C170.54 22.55 170.72 22.75 170.85 22.86C170.98 22.97 171.24 23.15 171.42 23.27C171.6 23.38 172.12 23.67 172.57 23.91C173.02 24.15 173.58 24.48 173.82 24.65C174.06 24.82 174.47 25.13 174.72 25.35C174.98 25.56 175.4 25.96 175.65 26.22C175.91 26.49 176.23 26.88 176.37 27.09C176.51 27.3 176.69 27.63 176.77 27.82C176.85 28.01 176.96 28.34 177.02 28.56C177.08 28.77 177.16 29.2 177.21 29.5C177.25 29.8 177.31 30.35 177.33 30.73C177.35 31.12 177.33 31.68 177.3 32.04C177.26 32.39 177.2 32.9 177.15 33.19C177.1 33.48 176.97 34 176.85 34.37C176.73 34.73 176.53 35.24 176.4 35.51C176.27 35.78 176.03 36.2 175.87 36.44C175.7 36.68 175.27 37.18 174.91 37.54C174.46 37.99 174.08 38.32 173.69 38.58C173.37 38.79 172.98 39.01 172.81 39.08C172.65 39.14 172.33 39.23 172.1 39.28C171.88 39.33 171.41 39.39 171.06 39.43C170.7 39.46 170.19 39.48 169.84 39.45C169.5 39.43 169.05 39.39 168.82 39.36C168.6 39.33 168.22 39.26 167.98 39.2C167.74 39.14 167.25 38.95 166.89 38.77C166.53 38.59 165.82 38.21 165.33 37.91C164.83 37.61 164.09 37.15 162.93 36.42L163.07 36.05C163.15 35.84 163.47 34.96 163.8 34.09C164.12 33.22 164.49 32.21 164.62 31.85C164.75 31.49 164.93 31.07 165.03 30.92C165.12 30.77 165.27 30.59 165.36 30.52C165.45 30.45 165.62 30.37 165.74 30.33C165.9 30.29 166.01 30.29 166.18 30.34C166.3 30.38 166.71 30.62 167.1 30.88C167.49 31.14 168.13 31.52 168.52 31.72C168.91 31.92 169.38 32.13 169.56 32.17C169.87 32.25 169.9 32.25 170.11 32.15C170.24 32.09 170.39 31.95 170.48 31.81C170.56 31.68 170.63 31.5 170.63 31.41C170.63 31.29 170.56 31.19 170.36 31C170.22 30.87 169.76 30.56 169.35 30.32C168.94 30.08 168.2 29.62 167.72 29.3C167.23 28.98 166.62 28.55 166.37 28.34C166.12 28.14 165.75 27.78 165.56 27.56C165.37 27.33 165.09 26.97 164.95 26.76C164.81 26.55 164.61 26.23 164.52 26.05C164.43 25.87 164.32 25.59 164.28 25.42C164.23 25.26 164.15 24.93 164.11 24.69C164.06 24.45 164 24.01 163.97 23.72C163.93 23.42 163.91 22.69 163.91 22.09C163.91 21.49 163.94 20.76 163.97 20.46C164 20.17 164.09 19.73 164.17 19.49C164.24 19.25 164.44 18.76 164.61 18.4C164.79 18.04 165.04 17.56 165.19 17.33C165.33 17.11 165.59 16.75 165.77 16.54C165.94 16.33 166.24 16 166.44 15.81C166.64 15.63 167.04 15.33 167.34 15.16C167.63 14.99 168.04 14.77 168.25 14.67C168.49 14.56 168.79 14.48 169.04 14.44C169.26 14.41 169.56 14.38 169.69 14.37C169.83 14.35 170.08 14.34 170.24 14.33L170.24 14.33ZM129.49 15.62C129.59 16.01 129.99 17.65 130.38 19.27C130.77 20.9 131.17 22.52 131.26 22.87C131.36 23.22 131.45 23.49 131.47 23.47C131.49 23.45 131.59 23.11 131.7 22.72C131.8 22.33 132.07 21.26 132.28 20.34C132.5 19.42 132.85 17.96 133.06 17.09C133.27 16.21 133.47 15.37 133.6 14.93L135.55 14.93C136.62 14.93 137.96 14.95 138.51 14.97C139.18 15 139.58 15.04 139.68 15.1C139.77 15.14 139.9 15.26 139.98 15.36C140.1 15.54 140.1 15.59 140.08 16.05C140.06 16.32 139.97 16.94 139.88 17.44C139.78 17.94 139.52 19.17 139.3 20.18C139.07 21.18 138.41 24.04 137.83 26.52C137.24 29 136.22 33.35 135.54 36.2C134.87 39.04 133.98 42.78 133.57 44.51C133.16 46.24 132.78 47.71 132.74 47.78C132.69 47.86 132.58 47.92 132.38 47.96C132.2 47.99 131.12 48.01 129.44 48C127.04 47.98 126.78 47.97 126.62 47.89C126.52 47.83 126.39 47.71 126.33 47.61C126.23 47.45 126.22 47.38 126.24 46.86C126.26 46.5 126.36 45.87 126.49 45.19C126.62 44.59 126.8 43.72 126.91 43.25C127.01 42.78 127.34 41.39 127.62 40.16C128.13 38 128.15 37.91 128.09 37.62C128.05 37.45 127.14 33.81 126.06 29.53C124.98 25.24 123.87 20.87 123.61 19.82C123.34 18.77 123.05 17.59 122.97 17.2C122.89 16.8 122.82 16.29 122.81 16.04C122.81 15.7 122.83 15.57 122.91 15.44C122.97 15.35 123.06 15.25 123.1 15.22C123.15 15.18 123.31 15.12 123.46 15.08C123.62 15.05 124.43 15 125.35 14.98C126.23 14.96 127.49 14.94 129.31 14.93L129.49 15.62Z" />
	</g>
	<g id="Layer">
		<path id="Layer" fill-rule="evenodd" class="shp2" d="M57.27 0C60.2 0 60.47 0 60.84 0.1C61.07 0.16 61.54 0.34 61.88 0.5C62.23 0.66 62.72 0.93 62.97 1.09C63.23 1.25 63.65 1.54 63.9 1.74C64.16 1.94 64.58 2.31 64.84 2.57C65.09 2.82 65.45 3.23 65.63 3.47C65.82 3.71 66.12 4.15 66.31 4.45C66.5 4.75 66.83 5.32 67.05 5.71C67.26 6.1 67.54 6.63 67.9 7.35L68.03 11.78C68.1 14.22 68.16 16.22 68.16 16.22C68.16 16.23 68.31 16.33 68.49 16.44C68.67 16.56 68.82 16.65 68.82 16.66C68.82 16.67 68.3 16.67 66.5 16.67L67.37 16.22L67.33 13.59C67.3 12.15 67.26 10.41 67.23 9.73C67.21 9.05 67.16 8.33 67.13 8.12C67.09 7.91 67.02 7.57 66.96 7.38C66.9 7.18 66.73 6.78 66.58 6.48C66.43 6.18 66.12 5.64 65.88 5.27C65.56 4.79 65.29 4.47 64.88 4.07C64.57 3.77 64.1 3.36 63.85 3.16C63.59 2.96 63.08 2.6 62.7 2.37C62.33 2.13 61.8 1.81 61.53 1.65C61.26 1.5 60.91 1.32 60.76 1.26C60.61 1.19 60.35 1.1 60.19 1.06C60.02 1.02 59.41 0.96 58.82 0.93C58.11 0.89 57.31 0.89 56.39 0.92C55.64 0.95 54.78 1.01 54.48 1.04C54.18 1.07 53.76 1.14 53.54 1.2C53.32 1.26 52.85 1.42 52.5 1.56C52.15 1.7 51.7 1.9 51.5 1.99C51.31 2.09 50.98 2.29 50.77 2.43C50.56 2.57 50.15 2.88 49.87 3.1C49.58 3.33 49.09 3.76 48.78 4.07C48.47 4.37 48.03 4.84 47.8 5.11C47.57 5.38 47.24 5.82 47.07 6.09C46.89 6.37 46.63 6.82 46.5 7.11C46.36 7.39 46.15 7.92 46.03 8.28C45.91 8.65 45.81 9.05 45.81 9.18C45.81 9.34 45.87 9.56 45.98 9.79C46.07 9.98 46.22 10.26 46.32 10.4C46.42 10.54 47.06 11.34 47.74 12.17C48.41 13.01 49.21 13.98 49.51 14.32C49.82 14.67 50.15 15.02 50.25 15.1C50.36 15.17 50.53 15.28 50.63 15.34C50.74 15.39 50.96 15.47 51.12 15.51C51.3 15.56 51.6 15.71 51.86 15.88C52.1 16.04 52.47 16.34 52.69 16.55C52.97 16.82 53.08 16.96 53.09 17.06C53.09 17.18 53.02 17.23 52.19 17.63L52.19 18.02C52.2 18.27 52.26 18.59 52.38 19C52.47 19.33 52.71 20.09 52.9 20.68C53.1 21.28 53.35 22.11 53.47 22.54C53.59 22.97 53.69 23.4 53.69 23.5C53.69 23.6 53.67 23.67 53.63 23.67C53.6 23.67 53.51 23.62 53.43 23.55C53.35 23.47 52.94 22.94 52.52 22.36C52.1 21.77 51.6 21.13 51.4 20.93C51.2 20.72 51.02 20.56 51 20.56C50.98 20.56 50.93 20.62 50.9 20.69C50.86 20.8 50.88 20.96 50.96 21.31C51.02 21.57 51.1 21.89 51.14 22.02C51.19 22.21 51.19 22.26 51.14 22.32C51.08 22.38 51.03 22.37 50.89 22.29C50.79 22.24 50.41 21.93 50.04 21.6C49.68 21.27 49.33 20.97 49.27 20.94C49.21 20.91 49.13 20.9 49.09 20.93C49.05 20.95 49.04 21.07 49.06 21.27C49.07 21.43 49.14 21.69 49.2 21.84C49.27 21.99 49.32 22.21 49.32 22.32C49.32 22.48 49.3 22.53 49.22 22.53C49.17 22.53 49.02 22.46 48.9 22.36C48.77 22.27 48.44 21.99 48.16 21.73C47.88 21.47 47.56 21.21 47.45 21.15C47.34 21.1 47.23 21.05 47.2 21.05C47.18 21.05 47.18 21.14 47.2 21.25C47.21 21.37 47.33 21.7 47.46 21.99C47.58 22.29 47.68 22.61 47.68 22.72C47.68 22.89 47.67 22.91 47.52 22.91C47.42 22.91 47.09 22.77 46.74 22.59C46.4 22.41 46.07 22.25 46 22.23C45.91 22.21 45.88 22.22 45.88 22.29C45.88 22.35 45.94 22.6 46.02 22.85C46.09 23.11 46.15 23.4 46.15 23.5C46.15 23.64 46.13 23.67 46.04 23.67C45.98 23.67 45.72 23.59 45.47 23.48C45.21 23.38 44.96 23.29 44.9 23.29C44.84 23.29 44.77 23.34 44.76 23.39C44.74 23.44 44.79 23.74 44.87 24.04C44.94 24.35 45.01 24.7 45.01 24.82C45.01 24.98 44.98 25.05 44.91 25.08C44.86 25.09 44.74 25.08 44.65 25.04C44.56 25 44.25 24.81 43.97 24.62C43.68 24.43 43.37 24.26 43.28 24.24C43.15 24.22 43.1 24.24 43.02 24.34C42.97 24.41 42.93 24.52 42.93 24.58C42.93 24.64 42.98 24.86 43.05 25.07C43.12 25.29 43.17 25.61 43.17 25.83C43.18 26.18 43.16 26.22 43.04 26.29C42.91 26.37 42.86 26.36 42.38 26.2C42.1 26.1 41.8 26.03 41.71 26.03C41.6 26.03 41.56 26.05 41.56 26.14C41.56 26.2 41.66 26.48 41.77 26.77C41.94 27.21 41.96 27.3 41.89 27.34C41.85 27.36 41.71 27.36 41.59 27.33C41.47 27.3 41.15 27.19 40.88 27.09C40.61 26.98 40.38 26.91 40.38 26.91C40.37 26.92 40.51 27.24 40.7 27.63C40.98 28.19 41.03 28.34 40.98 28.39C40.92 28.45 40.79 28.44 40.32 28.38C39.76 28.31 39.73 28.31 39.54 28.41C39.43 28.47 39.24 28.69 39.07 28.94C38.91 29.17 38.78 29.39 38.78 29.42C38.78 29.45 38.86 29.55 38.96 29.64C39.05 29.73 39.22 29.83 39.32 29.86C39.43 29.9 39.63 29.93 39.76 29.93C39.9 29.93 40.19 29.91 40.8 29.83L40.8 29.99C40.8 30.08 40.76 30.34 40.7 30.58C40.65 30.81 40.63 31.02 40.65 31.04C40.68 31.06 40.9 31.02 41.14 30.93C41.39 30.85 41.63 30.78 41.69 30.78C41.74 30.78 41.8 30.83 41.83 30.88C41.86 30.93 41.89 31.16 41.91 31.39C41.93 31.61 41.97 31.87 42 31.96C42.03 32.05 42.08 32.14 42.12 32.16C42.16 32.18 42.29 32.15 42.41 32.09C42.53 32.04 42.74 31.9 42.88 31.78C43.01 31.67 43.24 31.48 43.39 31.37C43.54 31.25 43.72 31.16 43.78 31.16C43.88 31.17 43.88 31.19 43.84 31.99C43.81 32.68 43.82 32.82 43.89 32.89C43.93 32.93 44.03 32.97 44.1 32.97C44.18 32.97 44.33 32.93 44.45 32.87C44.56 32.81 44.82 32.58 45.03 32.35C45.25 32.1 45.47 31.91 45.55 31.89C45.64 31.88 45.7 31.89 45.73 31.94C45.76 31.98 45.76 32.14 45.75 32.29C45.73 32.44 45.59 32.93 45.43 33.39C45.2 34.04 45.16 34.24 45.21 34.29C45.26 34.35 45.32 34.34 45.51 34.22C45.64 34.14 45.98 33.87 46.26 33.63C46.55 33.38 46.93 33.08 47.11 32.96C47.29 32.85 47.48 32.75 47.54 32.75C47.61 32.75 47.7 32.8 47.75 32.85C47.8 32.9 47.85 32.99 47.85 33.05C47.84 33.11 47.77 33.3 47.69 33.46C47.6 33.63 47.39 33.97 47.22 34.23C47.05 34.48 46.86 34.82 46.81 34.98C46.75 35.14 46.7 35.32 46.7 35.38C46.7 35.44 46.74 35.49 46.78 35.49C46.83 35.49 46.94 35.42 47.04 35.34C47.14 35.26 47.56 34.86 47.98 34.46C48.4 34.05 48.89 33.62 49.06 33.48C49.23 33.35 49.42 33.24 49.47 33.24C49.55 33.24 49.56 33.27 49.53 33.45C49.51 33.56 49.4 33.85 49.3 34.09C49.2 34.33 48.94 34.91 48.72 35.38C48.5 35.84 48.32 36.28 48.32 36.35C48.31 36.43 48.36 36.52 48.42 36.56C48.52 36.63 48.55 36.62 48.77 36.46C48.9 36.36 49.25 35.96 49.55 35.57C49.85 35.18 50.31 34.59 50.58 34.27C50.85 33.95 51.19 33.58 51.34 33.46C51.49 33.34 51.65 33.24 51.7 33.24C51.74 33.24 51.79 33.27 51.81 33.3C51.82 33.33 51.79 33.52 51.73 33.72C51.68 33.93 51.46 34.53 51.25 35.08C51.03 35.62 50.81 36.23 50.74 36.44C50.68 36.65 50.62 36.93 50.62 37.05C50.61 37.18 50.62 37.3 50.64 37.33C50.67 37.35 50.74 37.32 50.8 37.26C50.86 37.2 51.08 36.91 51.28 36.61C51.49 36.31 52.07 35.41 52.57 34.61C53.07 33.81 53.59 33.03 53.72 32.86C53.85 32.7 54 32.52 54.07 32.47C54.13 32.41 54.21 32.38 54.24 32.4C54.27 32.41 54.28 32.5 54.25 32.6C54.24 32.7 54.12 33.07 54 33.44C53.88 33.8 53.59 34.6 53.35 35.21C53.11 35.83 52.78 36.73 52.62 37.21C52.46 37.69 52.33 38.14 52.32 38.21C52.32 38.28 52.36 38.33 52.4 38.33C52.45 38.33 52.57 38.24 52.68 38.14C52.78 38.03 53 37.72 53.16 37.44C53.33 37.16 53.69 36.49 53.98 35.95C54.26 35.41 54.71 34.54 54.97 34.01C55.24 33.48 55.56 32.86 55.7 32.62C55.83 32.37 56.03 32.05 56.13 31.89C56.23 31.73 56.34 31.6 56.37 31.6C56.4 31.6 56.42 31.68 56.42 31.78C56.42 31.88 56.32 32.32 56.2 32.75C56.09 33.19 55.76 34.26 55.47 35.13C55.19 36 54.9 36.96 54.84 37.26C54.74 37.73 54.72 37.95 54.75 39.84L54.59 40.09C54.5 40.23 54.23 40.58 53.99 40.88C53.75 41.18 53.36 41.71 53.12 42.07C52.88 42.43 52.54 42.88 52.38 43.08C52.15 43.36 51.99 43.49 51.69 43.63C51.49 43.74 50.97 43.93 50.55 44.06C50.13 44.18 49.44 44.37 49.02 44.48C48.6 44.58 48 44.72 47.68 44.78C47.37 44.84 46.75 44.93 46.32 44.98C45.7 45.05 45.26 45.06 44.35 45.04C43.7 45.02 42.92 44.97 42.6 44.92C42.29 44.87 41.82 44.79 41.56 44.73C41.31 44.66 40.89 44.55 40.64 44.47C40.38 44.4 39.94 44.25 39.65 44.14C39.37 44.03 38.99 43.86 38.81 43.74C38.63 43.63 38.27 43.39 38.01 43.21C37.76 43.03 37.21 42.58 36.79 42.2C36.36 41.83 35.58 41.09 35.04 40.57C34.5 40.04 33.77 39.34 33.43 39.01C33.08 38.68 32.66 38.31 32.5 38.18C32.33 38.06 32.14 37.94 32.06 37.92C31.95 37.89 31.89 37.93 31.69 38.13C31.56 38.27 31.45 38.45 31.43 38.53C31.41 38.62 31.3 38.99 31.17 39.37C31.05 39.74 30.86 40.25 30.75 40.49C30.63 40.73 30.48 41 30.4 41.08C30.32 41.16 30.23 41.22 30.19 41.21C30.15 41.2 30.08 41.13 30.04 41.05C29.97 40.92 29.97 40.79 30.06 39.85C30.14 39.09 30.15 38.73 30.11 38.58C30.06 38.37 30.05 38.36 29.87 38.37C29.77 38.38 29.56 38.44 29.41 38.52C29.26 38.59 28.9 38.83 28.62 39.05C28.33 39.27 27.73 39.76 27.27 40.14C26.81 40.53 26.33 40.92 26.2 41.01C26.08 41.1 25.93 41.18 25.88 41.17C25.82 41.17 25.75 41.11 25.72 41.02C25.68 40.92 25.68 40.8 25.72 40.63C25.76 40.49 25.92 40.07 26.08 39.7C26.24 39.32 26.4 38.91 26.44 38.78C26.51 38.58 26.51 38.54 26.44 38.47C26.39 38.43 26.03 38.28 25.64 38.14C25.25 38 24.7 37.82 24.41 37.75C24.13 37.68 23.78 37.62 23.65 37.62C23.51 37.62 23.07 37.68 22.67 37.76C22.26 37.83 21.76 37.9 21.55 37.91C21.21 37.92 21.17 37.91 21.15 37.81C21.14 37.74 21.2 37.63 21.31 37.52C21.41 37.42 21.76 37.14 22.09 36.91C22.42 36.67 22.79 36.38 22.9 36.26C23.01 36.13 23.13 35.97 23.16 35.9C23.19 35.82 23.2 35.69 23.18 35.61C23.16 35.53 23.08 35.34 23.01 35.2C22.9 34.97 22.84 34.92 22.52 34.77C22.26 34.65 21.89 34.54 21.33 34.44C20.88 34.35 20.25 34.22 19.94 34.14C19.62 34.07 19.31 33.97 19.24 33.93C19.17 33.88 19.1 33.78 19.08 33.7C19.06 33.6 19.07 33.53 19.12 33.51C19.16 33.49 19.52 33.41 19.91 33.33C20.3 33.26 20.93 33.14 21.3 33.08C21.68 33.01 21.99 32.95 22 32.94C22.01 32.93 21.95 32.79 21.87 32.63C21.79 32.47 21.62 32.18 21.49 31.99C21.36 31.79 21.14 31.52 20.99 31.39C20.84 31.25 20.35 30.93 19.9 30.67C19.45 30.41 18.76 30.02 18.37 29.81C17.97 29.59 17.65 29.4 17.66 29.38C17.67 29.35 17.82 29.31 17.98 29.29C18.14 29.27 18.51 29.2 18.8 29.14C19.1 29.08 19.46 28.98 19.62 28.9C19.78 28.83 19.97 28.7 20.06 28.62C20.14 28.53 20.26 28.34 20.32 28.19C20.39 28.04 20.44 27.83 20.45 27.74C20.45 27.6 20.4 27.51 20.24 27.34C20.12 27.22 19.88 27.04 19.72 26.95C19.55 26.86 19.35 26.71 19.27 26.64C19.18 26.56 19.11 26.44 19.12 26.37C19.12 26.3 19.14 26.2 19.17 26.14C19.21 26.05 19.28 26.03 19.46 26.03C19.59 26.03 19.99 26.1 20.36 26.19C20.73 26.28 21.1 26.35 21.19 26.35C21.28 26.35 21.41 26.33 21.48 26.29C21.55 26.26 21.69 26.14 21.81 26.03C21.94 25.91 22.01 25.78 22.01 25.7C22.01 25.62 21.89 25.38 21.73 25.15C21.58 24.93 21.31 24.57 21.15 24.36C20.98 24.15 20.64 23.77 19.94 23.05L19.38 23.6C19.07 23.9 18.21 24.73 17.48 25.46C16.74 26.18 15.99 26.9 15.8 27.05C15.61 27.21 15.43 27.34 15.4 27.34C15.37 27.34 15.33 27.31 15.31 27.27C15.29 27.23 15.25 27.07 15.23 26.9C15.2 26.68 15.15 26.57 15.06 26.5C14.97 26.43 14.89 26.41 14.75 26.43C14.64 26.45 14.24 26.63 13.85 26.82C13.46 27.01 12.87 27.31 12.55 27.49C12.16 27.7 11.94 27.78 11.91 27.75C11.88 27.72 11.84 27.47 11.77 26.7L11.28 27.08C11.01 27.29 10.67 27.52 10.53 27.59C10.39 27.66 10.22 27.72 10.16 27.72C10.1 27.72 10.01 27.68 9.97 27.64C9.92 27.59 9.89 27.46 9.89 27.3C9.89 27.15 9.94 26.88 10 26.68C10.06 26.49 10.1 26.29 10.08 26.25C10.05 26.18 9.98 26.17 9.71 26.2C9.44 26.23 9.21 26.32 8.6 26.63C7.97 26.95 7.78 27.03 7.52 27.04C7.26 27.06 7.2 27.05 7.18 26.97C7.15 26.91 7.23 26.74 7.41 26.49C7.56 26.28 7.74 26 7.8 25.88C7.87 25.75 7.92 25.61 7.92 25.56C7.92 25.52 7.87 25.48 7.81 25.48C7.75 25.48 7.36 25.65 6.95 25.86C6.54 26.08 6.08 26.29 5.93 26.33C5.78 26.37 5.58 26.4 5.49 26.38C5.4 26.37 5.29 26.32 5.26 26.27C5.21 26.22 5.21 26.16 5.24 26.09C5.26 26.04 5.51 25.75 5.8 25.45C6.08 25.14 6.36 24.79 6.53 24.44L6.42 24.33C6.36 24.27 6.22 24.19 6.12 24.16C5.97 24.11 5.85 24.12 5.63 24.17C5.46 24.2 5 24.35 4.6 24.5C4.2 24.65 3.79 24.77 3.69 24.77C3.55 24.77 3.5 24.74 3.5 24.69C3.5 24.64 3.54 24.51 3.6 24.4C3.66 24.29 3.94 23.87 4.23 23.48C4.53 23.09 4.79 22.73 4.81 22.68C4.85 22.6 4.84 22.59 4.74 22.61C4.67 22.63 4.36 22.76 4.04 22.89C3.73 23.03 3.3 23.2 3.09 23.27C2.88 23.34 2.59 23.4 2.46 23.4C2.3 23.4 2.18 23.36 2.11 23.3C2.06 23.25 2.02 23.13 2.02 23.03C2.02 22.93 2.06 22.82 2.12 22.77C2.17 22.72 2.4 22.57 2.62 22.42C2.85 22.28 3.17 22.05 3.65 21.68L3.31 21.19C3.13 20.92 2.91 20.65 2.82 20.59C2.68 20.48 2.61 20.48 1.66 20.49C0.8 20.5 0.66 20.49 0.66 20.42C0.66 20.38 0.8 20.19 0.97 20C1.15 19.81 1.37 19.53 1.47 19.38C1.58 19.23 1.71 18.99 1.76 18.85C1.81 18.71 1.86 18.47 1.86 18.32C1.86 18.1 1.83 18.02 1.73 17.95C1.66 17.89 1.46 17.81 1.28 17.76C1.1 17.71 0.82 17.64 0.66 17.61C0.49 17.58 0.28 17.5 0.18 17.44C0.03 17.35 0 17.3 0 17.14C0 17 0.04 16.92 0.15 16.84C0.23 16.78 0.5 16.67 0.74 16.59C0.98 16.52 1.26 16.41 1.36 16.34C1.46 16.27 1.59 16.15 1.65 16.07C1.7 16 1.76 15.85 1.78 15.75C1.8 15.61 1.78 15.5 1.7 15.38C1.63 15.28 1.43 15.09 1.24 14.96C1.05 14.82 0.78 14.63 0.64 14.52C0.5 14.41 0.32 14.23 0.24 14.12C0.17 14.01 0.08 13.8 0.05 13.67C0.02 13.53 0.01 13.35 0.03 13.27C0.05 13.14 0.08 13.12 0.26 13.12C0.37 13.12 0.83 13.25 1.28 13.4C1.77 13.57 2.25 13.69 2.46 13.71C2.7 13.73 2.87 13.72 3 13.66C3.1 13.62 3.23 13.52 3.29 13.45C3.34 13.37 3.39 13.29 3.39 13.26C3.39 13.23 3.27 13.02 3.12 12.79C2.98 12.57 2.64 12.14 2.38 11.84C2.12 11.54 1.79 11.11 1.64 10.89C1.43 10.59 1.37 10.45 1.36 10.29C1.36 10.18 1.39 10.06 1.43 10.02C1.47 9.98 1.55 9.95 1.61 9.95C1.67 9.95 1.9 10.08 2.13 10.23C2.36 10.39 2.76 10.69 3.03 10.91C3.3 11.13 3.79 11.48 4.12 11.7C4.45 11.91 4.97 12.21 5.27 12.36C5.57 12.51 6.26 12.82 6.8 13.06C7.34 13.3 8.35 13.76 9.04 14.09C9.73 14.42 10.63 14.84 11.03 15.01C11.44 15.18 12.1 15.44 12.51 15.59C12.91 15.74 13.65 15.99 14.15 16.14C14.64 16.29 15.27 16.46 15.54 16.51C15.81 16.57 16.34 16.65 16.71 16.7C17.09 16.75 17.62 16.78 17.89 16.78C18.16 16.78 18.55 16.76 18.76 16.73C18.97 16.7 19.45 16.6 19.83 16.51C20.2 16.42 20.85 16.23 21.27 16.09C21.69 15.95 22.46 15.68 22.97 15.49C23.48 15.3 24.15 15.03 24.47 14.89C24.78 14.75 25.27 14.51 25.55 14.36C25.82 14.21 26.04 14.06 26.02 14.04C26.01 14.01 25.86 13.97 25.68 13.94C25.51 13.9 25.3 13.84 25.21 13.79C25.12 13.75 25 13.67 24.95 13.62C24.89 13.57 24.85 13.49 24.85 13.44C24.85 13.38 24.92 13.29 25 13.23C25.08 13.17 25.25 13.11 25.37 13.09C25.49 13.07 25.71 13.01 25.86 12.95C26.01 12.9 26.17 12.81 26.22 12.76C26.29 12.68 26.28 12.66 26.13 12.54C26.04 12.47 25.85 12.37 25.7 12.32C25.55 12.27 25.36 12.17 25.27 12.1C25.19 12.03 25.12 11.93 25.12 11.88C25.12 11.82 25.19 11.75 25.27 11.71C25.36 11.67 25.65 11.61 25.92 11.59C26.19 11.56 26.48 11.51 26.56 11.47C26.64 11.43 26.71 11.37 26.71 11.34C26.71 11.31 26.58 11.17 26.42 11.02C26.26 10.87 25.86 10.56 25.52 10.33C25.18 10.11 24.9 9.89 24.9 9.85C24.9 9.81 25 9.78 25.14 9.76C25.27 9.75 25.57 9.72 25.81 9.71C26.05 9.69 26.37 9.64 26.53 9.6C26.69 9.55 26.83 9.49 26.84 9.46C26.86 9.43 26.81 9.31 26.74 9.2C26.66 9.09 26.38 8.77 26.11 8.5C25.84 8.23 25.62 7.99 25.62 7.97C25.62 7.95 26.02 7.93 26.5 7.92C26.99 7.92 27.5 7.9 27.64 7.87C27.77 7.84 27.94 7.76 28.01 7.7C28.08 7.62 28.13 7.51 28.13 7.41C28.13 7.32 28.09 7.18 28.04 7.11C27.99 7.03 27.66 6.67 27.31 6.31C26.96 5.95 26.65 5.6 26.63 5.52C26.6 5.42 26.62 5.36 26.69 5.29C26.75 5.23 26.86 5.19 26.95 5.19C27.04 5.19 27.28 5.24 27.47 5.29C27.67 5.35 28.12 5.51 28.48 5.64C28.84 5.78 29.28 5.92 29.45 5.97C29.62 6.01 29.78 6.03 29.8 6.01C29.81 6 29.81 5.91 29.8 5.82C29.78 5.73 29.59 5.39 29.38 5.06C29.16 4.72 28.93 4.33 28.86 4.18C28.79 4.03 28.73 3.85 28.73 3.77C28.73 3.7 28.76 3.6 28.79 3.57C28.83 3.53 28.95 3.5 29.05 3.5C29.17 3.5 29.35 3.57 29.52 3.67C29.67 3.76 30.15 4.1 30.59 4.42C31.02 4.74 31.56 5.09 31.77 5.21C32.05 5.35 32.24 5.41 32.4 5.41C32.53 5.41 32.66 5.39 32.7 5.37C32.75 5.34 32.66 5.1 32.4 4.54C32.13 3.95 32.04 3.68 32.04 3.5C32.03 3.33 32.06 3.25 32.12 3.23C32.16 3.22 32.33 3.27 32.5 3.34C32.66 3.41 33.4 3.88 34.13 4.39C34.87 4.9 35.66 5.4 35.88 5.51C36.18 5.65 36.4 5.71 36.66 5.74C36.97 5.76 37.05 5.79 37.21 5.94C37.3 6.04 37.47 6.26 37.57 6.43C37.68 6.61 37.85 6.87 38.15 7.28L38.62 6.81C38.88 6.55 39.13 6.34 39.17 6.34C39.21 6.34 39.49 6.67 39.79 7.06C40.09 7.46 40.47 7.93 40.64 8.11C40.83 8.31 41.05 8.49 41.26 8.59C41.44 8.67 41.75 8.78 41.95 8.83C42.14 8.87 42.55 8.94 42.86 8.99C43.17 9.04 43.59 9.07 43.8 9.07C44.18 9.07 44.19 9.07 44.44 8.84C44.58 8.71 44.81 8.41 44.95 8.17C45.09 7.93 45.41 7.37 45.66 6.91C45.91 6.46 46.23 5.89 46.39 5.63C46.54 5.37 46.86 4.87 47.1 4.51C47.34 4.15 47.69 3.67 47.88 3.44C48.07 3.22 48.4 2.87 48.62 2.67C48.84 2.47 49.18 2.19 49.37 2.04C49.57 1.89 49.94 1.66 50.19 1.52C50.45 1.38 50.98 1.12 51.37 0.94C51.76 0.76 52.32 0.52 52.62 0.41C52.92 0.3 53.38 0.16 53.63 0.1C54.05 0.02 54.42 0 57.27 0L57.27 0ZM39.78 11.33C39.69 11.43 39.53 11.64 39.42 11.81C39.32 11.97 39.19 12.21 39.14 12.34C39.09 12.47 39.05 12.64 39.05 12.72C39.05 12.81 39.1 12.97 39.15 13.09C39.21 13.21 39.39 13.45 39.56 13.63C39.73 13.8 40.06 14.07 40.29 14.22C40.53 14.37 40.9 14.59 41.13 14.7L41.54 14.9C43.16 14.88 43.76 14.84 44.24 14.77C44.65 14.71 45.11 14.62 45.28 14.57C45.44 14.53 45.68 14.43 45.8 14.36C45.95 14.28 46.02 14.2 46.03 14.1C46.04 14.03 45.98 13.85 45.9 13.7C45.82 13.55 45.59 13.21 45.4 12.96C45.2 12.7 44.76 12.22 44.42 11.88C44.08 11.54 43.75 11.25 43.68 11.24C43.61 11.22 43.48 11.2 43.39 11.19C43.3 11.18 43.18 11.14 43.12 11.11C43.06 11.08 42.78 11 42.49 10.94C42.21 10.87 41.76 10.81 41.51 10.79C41.22 10.78 40.9 10.8 40.66 10.85C40.45 10.9 40.21 10.98 40.12 11.04C40.03 11.1 39.88 11.23 39.78 11.33ZM105.55 3.12C106.51 3.12 107.56 3.14 107.87 3.17C108.19 3.2 108.53 3.27 108.63 3.32C108.76 3.38 108.84 3.47 108.86 3.58C108.89 3.67 108.93 4.2 108.96 4.75C108.99 5.31 109.03 8.09 109.06 10.92C109.08 13.76 109.11 16.07 109.13 16.07C109.14 16.07 109.35 15.88 109.59 15.63C109.83 15.39 110.24 15.05 110.51 14.87C110.77 14.69 111.1 14.51 111.24 14.47C111.39 14.42 111.71 14.36 111.97 14.32C112.23 14.28 112.6 14.27 112.81 14.29C113.02 14.31 113.36 14.37 113.55 14.43C113.75 14.48 114.05 14.59 114.23 14.66C114.41 14.74 114.74 14.92 114.97 15.07C115.19 15.21 115.53 15.48 115.72 15.66C115.93 15.85 116.23 16.23 116.44 16.54C116.64 16.84 116.94 17.37 117.11 17.72C117.28 18.06 117.53 18.66 117.66 19.05C117.8 19.45 117.99 20.11 118.1 20.53C118.21 20.95 118.34 21.53 118.38 21.82C118.43 22.1 118.51 22.75 118.57 23.26C118.63 23.78 118.71 24.6 118.74 25.1C118.79 25.68 118.8 26.62 118.78 27.78C118.76 28.75 118.72 29.8 118.69 30.1C118.65 30.4 118.57 31 118.49 31.44C118.42 31.88 118.27 32.59 118.17 33.03C118.07 33.46 117.91 34.06 117.81 34.37C117.71 34.67 117.52 35.17 117.39 35.49C117.26 35.8 117.03 36.28 116.89 36.55C116.75 36.82 116.5 37.24 116.32 37.47C116.15 37.7 115.81 38.1 115.56 38.34C115.25 38.65 114.98 38.86 114.72 38.99C114.51 39.1 114.16 39.26 113.93 39.35C113.55 39.49 113.47 39.5 112.73 39.5C111.98 39.5 111.92 39.49 111.5 39.34C111.26 39.25 110.85 39.03 110.59 38.86C110.33 38.69 109.92 38.38 109.27 37.81L109.14 37.97C109.07 38.06 108.9 38.27 108.77 38.43C108.57 38.65 108.47 38.73 108.24 38.8C108.02 38.87 107.61 38.89 106.45 38.92C105.61 38.93 104.56 38.92 104.07 38.88C103.51 38.85 103.11 38.79 102.93 38.73C102.78 38.67 102.61 38.57 102.55 38.49C102.47 38.41 102.4 38.21 102.36 37.97C102.33 37.76 102.27 37.12 102.24 36.55C102.2 35.9 102.17 30.22 102.15 21.24C102.13 11.3 102.14 6.5 102.19 5.44C102.22 4.6 102.28 3.79 102.31 3.64C102.38 3.4 102.4 3.36 102.6 3.3C102.72 3.26 103.04 3.2 103.31 3.18C103.58 3.15 104.59 3.13 105.55 3.12L105.55 3.12ZM109.4 23.29C109.34 23.49 109.26 23.92 109.24 24.25C109.21 24.58 109.18 25.7 109.18 26.74C109.18 27.77 109.21 28.91 109.24 29.25C109.27 29.65 109.35 30.03 109.43 30.29C109.51 30.52 109.63 30.81 109.71 30.95C109.79 31.08 109.94 31.29 110.05 31.4C110.16 31.52 110.3 31.64 110.37 31.66C110.45 31.7 110.55 31.69 110.67 31.64C110.77 31.6 110.93 31.47 111.03 31.35C111.13 31.24 111.29 30.97 111.39 30.76C111.5 30.55 111.62 30.21 111.66 30.02C111.71 29.82 111.78 29.22 111.81 28.68C111.85 28.09 111.86 27.08 111.84 26.16C111.82 25.32 111.78 24.45 111.75 24.22C111.71 24 111.62 23.64 111.54 23.43C111.46 23.22 111.29 22.9 111.17 22.72C111.05 22.54 110.88 22.34 110.79 22.27C110.7 22.21 110.56 22.14 110.47 22.12C110.37 22.1 110.23 22.12 110.13 22.17C110.03 22.22 109.87 22.38 109.73 22.59C109.61 22.78 109.46 23.1 109.4 23.29ZM85.49 14.35C85.75 14.4 86.1 14.48 86.26 14.54C86.41 14.6 86.71 14.77 86.92 14.92C87.13 15.06 87.51 15.37 88.21 16.02L88.51 15.61C88.71 15.34 88.88 15.17 89.01 15.1C89.2 15.02 89.46 15.01 91.43 14.99C92.88 14.98 93.8 15 94.11 15.04C94.36 15.07 94.66 15.14 94.76 15.2C94.87 15.25 94.99 15.34 95.04 15.4C95.09 15.45 95.16 15.59 95.19 15.69C95.23 15.8 95.29 16.21 95.32 16.62C95.37 17.17 95.39 19.66 95.39 26.52C95.38 32.55 95.36 36.03 95.32 36.72C95.29 37.29 95.23 37.89 95.19 38.06C95.15 38.25 95.07 38.42 94.96 38.54C94.85 38.66 94.69 38.75 94.49 38.81C94.25 38.87 93.79 38.9 92.33 38.92C91.16 38.93 90.27 38.92 89.92 38.88C89.57 38.85 89.24 38.77 89.07 38.7C88.88 38.61 88.69 38.47 88.18 37.89L87.61 38.37C87.29 38.64 86.89 38.94 86.71 39.05C86.53 39.16 86.22 39.31 86.02 39.37C85.75 39.47 85.5 39.5 84.99 39.52C84.41 39.54 84.23 39.53 83.84 39.43C83.58 39.36 83.23 39.23 83.05 39.13C82.87 39.03 82.53 38.8 82.31 38.62C82.08 38.44 81.79 38.17 81.65 38.02C81.51 37.88 81.25 37.56 81.08 37.32C80.91 37.08 80.65 36.67 80.49 36.42C80.34 36.16 80.14 35.74 80.03 35.49C79.93 35.23 79.74 34.65 79.61 34.2C79.48 33.75 79.3 33.1 79.22 32.75C79.14 32.41 79.03 31.85 78.98 31.52C78.92 31.19 78.85 30.55 78.81 30.1C78.76 29.53 78.75 28.64 78.78 27.23C78.8 26.1 78.84 24.72 78.87 24.17C78.9 23.61 78.96 22.79 79.01 22.34C79.05 21.88 79.13 21.31 79.17 21.05C79.22 20.79 79.41 20.14 79.59 19.6C79.77 19.06 80.03 18.36 80.17 18.04C80.31 17.73 80.6 17.21 80.8 16.89C81.01 16.58 81.34 16.15 81.54 15.94C81.74 15.74 82.1 15.42 82.34 15.23C82.58 15.04 82.87 14.83 82.99 14.75C83.11 14.68 83.32 14.57 83.46 14.52C83.59 14.47 83.86 14.4 84.06 14.35C84.25 14.31 84.55 14.28 84.71 14.27C84.88 14.27 85.23 14.31 85.49 14.35ZM86.39 22.35C86.33 22.4 86.24 22.52 86.19 22.61C86.13 22.7 86.02 23.01 85.95 23.29C85.87 23.58 85.76 24.09 85.7 24.44C85.64 24.79 85.57 25.46 85.54 25.94C85.5 26.55 85.49 27.08 85.53 27.67C85.56 28.13 85.64 28.82 85.7 29.2C85.76 29.57 85.87 30.1 85.94 30.37C86.01 30.64 86.13 30.99 86.2 31.14C86.28 31.29 86.41 31.48 86.5 31.56C86.58 31.64 86.72 31.73 86.8 31.76C86.91 31.81 87 31.8 87.13 31.75C87.23 31.71 87.39 31.58 87.49 31.46C87.6 31.34 87.75 31.1 87.83 30.92C87.92 30.74 88.02 30.42 88.06 30.21C88.11 29.93 88.13 29.05 88.13 26.96C88.13 24.91 88.11 23.97 88.06 23.69C88.02 23.47 87.95 23.19 87.91 23.06C87.86 22.93 87.76 22.73 87.68 22.61C87.59 22.49 87.41 22.33 87.28 22.24C87.14 22.16 86.98 22.09 86.92 22.09C86.86 22.09 86.74 22.13 86.65 22.18C86.56 22.22 86.44 22.3 86.39 22.35L86.39 22.35ZM153.53 14.46C153.76 14.51 154.16 14.64 154.43 14.74C154.7 14.85 155.37 15.16 155.91 15.44C156.45 15.72 157.14 16.1 157.45 16.3C157.76 16.49 158.24 16.82 158.52 17.02C158.87 17.28 159.01 17.42 159 17.48C158.99 17.54 158.76 18.09 158.5 18.73C158.24 19.36 157.86 20.24 157.66 20.69C157.45 21.15 157.2 21.7 157.08 21.93C156.97 22.15 156.76 22.49 156.62 22.68C156.48 22.87 156.32 23.05 156.25 23.08C156.18 23.12 156.02 23.13 155.88 23.11C155.74 23.09 155.41 22.97 155.14 22.83C154.87 22.69 154.43 22.46 154.16 22.31C153.89 22.16 153.47 21.95 153.23 21.85C152.99 21.75 152.62 21.62 152.41 21.57C152.17 21.51 151.97 21.49 151.87 21.51C151.78 21.54 151.61 21.64 151.5 21.75C151.37 21.88 151.3 22 151.29 22.1C151.29 22.19 151.33 22.33 151.37 22.42C151.42 22.51 151.58 22.68 151.74 22.81C151.9 22.93 152.25 23.16 152.52 23.32C152.79 23.48 153.34 23.78 153.75 24C154.16 24.22 154.79 24.6 155.17 24.85C155.55 25.1 156.01 25.44 156.2 25.62C156.39 25.8 156.73 26.18 156.94 26.46C157.16 26.75 157.43 27.16 157.55 27.37C157.66 27.58 157.84 27.93 157.93 28.16C158.03 28.38 158.15 28.75 158.2 28.98C158.25 29.21 158.3 29.76 158.32 30.24C158.34 30.7 158.32 31.51 158.29 32.04C158.26 32.57 158.19 33.23 158.14 33.52C158.1 33.8 158 34.2 157.92 34.39C157.84 34.59 157.62 35.06 157.43 35.43C157.24 35.81 156.95 36.32 156.77 36.56C156.6 36.81 156.28 37.2 156.07 37.44C155.86 37.67 155.51 38 155.3 38.15C155.09 38.31 154.58 38.62 154.16 38.82C153.74 39.03 153.17 39.26 152.9 39.34C152.63 39.42 152.22 39.5 151.97 39.53C151.7 39.56 151.34 39.56 151.02 39.53C150.73 39.5 150.35 39.45 150.17 39.42C149.99 39.39 149.64 39.3 149.38 39.23C149.12 39.15 148.63 38.99 148.29 38.86C147.94 38.74 147.35 38.48 146.98 38.29C146.6 38.1 146.05 37.78 145.75 37.58C145.45 37.38 144.98 37.05 144.71 36.85C144.44 36.65 144.17 36.44 144.12 36.38C144.03 36.28 144.05 36.21 144.74 34.37C145.14 33.31 145.61 32.12 145.79 31.71C145.97 31.31 146.2 30.84 146.51 30.37L146.81 30.38C147.06 30.38 147.2 30.42 147.58 30.61C147.83 30.74 148.25 30.98 148.51 31.14C148.76 31.29 149.14 31.51 149.35 31.62C149.56 31.72 149.91 31.87 150.13 31.95C150.35 32.03 150.64 32.1 150.79 32.1C150.93 32.1 151.13 32.07 151.24 32.04C151.34 32.02 151.51 31.91 151.61 31.8C151.71 31.68 151.78 31.55 151.78 31.45C151.79 31.35 151.73 31.25 151.61 31.13C151.51 31.04 151.28 30.86 151.1 30.74C150.92 30.62 150.45 30.35 150.06 30.13C149.67 29.91 149.08 29.55 148.75 29.33C148.42 29.11 147.89 28.72 147.58 28.47C147.26 28.22 146.84 27.83 146.63 27.61C146.42 27.38 146.15 27.05 146.02 26.87C145.89 26.69 145.7 26.37 145.59 26.16C145.49 25.95 145.35 25.63 145.29 25.45C145.24 25.27 145.13 24.88 145.07 24.58C145 24.28 144.91 23.78 144.87 23.48C144.83 23.18 144.79 22.68 144.79 22.38C144.79 22.07 144.83 21.54 144.87 21.2C144.92 20.86 145.02 20.34 145.09 20.04C145.16 19.74 145.32 19.21 145.45 18.86C145.57 18.52 145.75 18.06 145.86 17.85C145.96 17.64 146.21 17.25 146.42 16.98C146.62 16.71 146.96 16.31 147.17 16.1C147.38 15.89 147.79 15.55 148.07 15.35C148.36 15.15 148.81 14.87 149.08 14.74C149.35 14.6 149.74 14.46 149.95 14.41C150.26 14.34 150.62 14.33 151.73 14.35C152.77 14.36 153.22 14.39 153.53 14.46ZM170.24 14.33C170.41 14.33 170.94 14.35 171.42 14.38C171.98 14.42 172.48 14.49 172.81 14.57C173.2 14.67 173.63 14.85 174.53 15.3C175.19 15.63 176.02 16.07 176.36 16.28C176.71 16.49 177.22 16.83 177.5 17.04C177.77 17.25 178 17.45 178 17.5C178 17.54 177.68 18.32 177.28 19.22C176.89 20.12 176.41 21.19 176.21 21.6C176.02 22 175.76 22.49 175.63 22.69C175.5 22.89 175.33 23.08 175.26 23.12C175.15 23.19 175.08 23.19 174.78 23.11C174.58 23.06 174.2 22.89 173.93 22.74C173.66 22.59 173.12 22.31 172.73 22.12C172.32 21.91 171.83 21.71 171.58 21.65C171.34 21.59 171 21.54 170.83 21.54C170.55 21.54 170.51 21.56 170.41 21.69C170.35 21.78 170.3 21.92 170.3 22.01C170.3 22.1 170.37 22.28 170.46 22.42C170.54 22.55 170.72 22.75 170.85 22.86C170.98 22.97 171.24 23.15 171.42 23.27C171.6 23.38 172.12 23.67 172.57 23.91C173.02 24.15 173.58 24.48 173.82 24.65C174.06 24.82 174.47 25.13 174.72 25.35C174.98 25.56 175.4 25.96 175.65 26.22C175.91 26.49 176.23 26.88 176.37 27.09C176.51 27.3 176.69 27.63 176.77 27.82C176.85 28.01 176.96 28.34 177.02 28.56C177.08 28.77 177.16 29.2 177.21 29.5C177.25 29.8 177.31 30.35 177.33 30.73C177.35 31.12 177.33 31.68 177.3 32.04C177.26 32.39 177.2 32.9 177.15 33.19C177.1 33.48 176.97 34 176.85 34.37C176.73 34.73 176.53 35.24 176.4 35.51C176.27 35.78 176.03 36.2 175.87 36.44C175.7 36.68 175.27 37.18 174.91 37.54C174.46 37.99 174.08 38.32 173.69 38.58C173.37 38.79 172.98 39.01 172.81 39.08C172.65 39.14 172.33 39.23 172.1 39.28C171.88 39.33 171.41 39.39 171.06 39.43C170.7 39.46 170.19 39.48 169.84 39.45C169.5 39.43 169.05 39.39 168.82 39.36C168.6 39.33 168.22 39.26 167.98 39.2C167.74 39.14 167.25 38.95 166.89 38.77C166.53 38.59 165.82 38.21 165.33 37.91C164.83 37.61 164.09 37.15 162.93 36.42L163.07 36.05C163.15 35.84 163.47 34.96 163.8 34.09C164.12 33.22 164.49 32.21 164.62 31.85C164.75 31.49 164.93 31.07 165.03 30.92C165.12 30.77 165.27 30.59 165.36 30.52C165.45 30.45 165.62 30.37 165.74 30.33C165.9 30.29 166.01 30.29 166.18 30.34C166.3 30.38 166.71 30.62 167.1 30.88C167.49 31.14 168.13 31.52 168.52 31.72C168.91 31.92 169.38 32.13 169.56 32.17C169.87 32.25 169.9 32.25 170.11 32.15C170.24 32.09 170.39 31.95 170.48 31.81C170.56 31.68 170.63 31.5 170.63 31.41C170.63 31.29 170.56 31.19 170.36 31C170.22 30.87 169.76 30.56 169.35 30.32C168.94 30.08 168.2 29.62 167.72 29.3C167.23 28.98 166.62 28.55 166.37 28.34C166.12 28.14 165.75 27.78 165.56 27.56C165.37 27.33 165.09 26.97 164.95 26.76C164.81 26.55 164.61 26.23 164.52 26.05C164.43 25.87 164.32 25.59 164.28 25.42C164.23 25.26 164.15 24.93 164.11 24.69C164.06 24.45 164 24.01 163.97 23.72C163.93 23.42 163.91 22.69 163.91 22.09C163.91 21.49 163.94 20.76 163.97 20.46C164 20.17 164.09 19.73 164.17 19.49C164.24 19.25 164.44 18.76 164.61 18.4C164.79 18.04 165.04 17.56 165.19 17.33C165.33 17.11 165.59 16.75 165.77 16.54C165.94 16.33 166.24 16 166.44 15.81C166.64 15.63 167.04 15.33 167.34 15.16C167.63 14.99 168.04 14.77 168.25 14.67C168.49 14.56 168.79 14.48 169.04 14.44C169.26 14.41 169.56 14.38 169.69 14.37C169.83 14.35 170.08 14.34 170.24 14.33L170.24 14.33ZM129.49 15.62C129.59 16.01 129.99 17.65 130.38 19.27C130.77 20.9 131.17 22.52 131.26 22.87C131.36 23.22 131.45 23.49 131.47 23.47C131.49 23.45 131.59 23.11 131.7 22.72C131.8 22.33 132.07 21.26 132.28 20.34C132.5 19.42 132.85 17.96 133.06 17.09C133.27 16.21 133.47 15.37 133.6 14.93L135.55 14.93C136.62 14.93 137.96 14.95 138.51 14.97C139.18 15 139.58 15.04 139.68 15.1C139.77 15.14 139.9 15.26 139.98 15.36C140.1 15.54 140.1 15.59 140.08 16.05C140.06 16.32 139.97 16.94 139.88 17.44C139.78 17.94 139.52 19.17 139.3 20.18C139.07 21.18 138.41 24.04 137.83 26.52C137.24 29 136.22 33.35 135.54 36.2C134.87 39.04 133.98 42.78 133.57 44.51C133.16 46.24 132.78 47.71 132.74 47.78C132.69 47.86 132.58 47.92 132.38 47.96C132.2 47.99 131.12 48.01 129.44 48C127.04 47.98 126.78 47.97 126.62 47.89C126.52 47.83 126.39 47.71 126.33 47.61C126.23 47.45 126.22 47.38 126.24 46.86C126.26 46.5 126.36 45.87 126.49 45.19C126.62 44.59 126.8 43.72 126.91 43.25C127.01 42.78 127.34 41.39 127.62 40.16C128.13 38 128.15 37.91 128.09 37.62C128.05 37.45 127.14 33.81 126.06 29.53C124.98 25.24 123.87 20.87 123.61 19.82C123.34 18.77 123.05 17.59 122.97 17.2C122.89 16.8 122.82 16.29 122.81 16.04C122.81 15.7 122.83 15.57 122.91 15.44C122.97 15.35 123.06 15.25 123.1 15.22C123.15 15.18 123.31 15.12 123.46 15.08C123.62 15.05 124.43 15 125.35 14.98C126.23 14.96 127.49 14.94 129.31 14.93L129.49 15.62Z" />
	</g>
	<g id="Layer">
		<path id="Layer" class="shp3" d="M43.3 11.49C43.18 11.65 42.98 11.99 42.85 12.24C42.72 12.5 42.54 12.93 42.44 13.2C42.28 13.64 42.26 13.76 42.26 14.29L42.25 14.9C43.31 14.87 43.95 14.82 44.36 14.76C44.76 14.7 45.22 14.61 45.37 14.57C45.52 14.52 45.74 14.43 45.86 14.36C46.01 14.28 46.08 14.19 46.1 14.1C46.11 14.03 46.05 13.84 45.97 13.69C45.89 13.54 45.66 13.21 45.46 12.95C45.26 12.7 44.84 12.23 44.51 11.9C44.19 11.58 43.87 11.29 43.81 11.26C43.75 11.23 43.66 11.21 43.6 11.21C43.55 11.21 43.41 11.34 43.3 11.49Z" />
	</g>
	<g id="Layer">
		<path id="Layer" class="shp2" d="M67.63 16.34C69.58 16.34 71.16 17.92 71.16 19.87C71.16 21.82 69.58 23.4 67.63 23.4C65.68 23.4 64.1 21.82 64.1 19.87C64.1 17.92 65.68 16.34 67.63 16.34Z" />
	</g>
	<g id="Layer">
		<path id="Layer" class="shp4" d="M67.57 17.87C69.07 17.87 70.28 19.09 70.28 20.58C70.28 22.08 69.07 23.29 67.57 23.29C66.08 23.29 64.87 22.08 64.87 20.58C64.87 19.09 66.08 17.87 67.57 17.87Z" />
	</g>
	<g id="Layer">
		<path id="Layer" class="shp2" d="M183.72 32.91C185.53 32.91 187 34.38 187 36.19C187 38 185.53 39.47 183.72 39.47C181.91 39.47 180.44 38 180.44 36.19C180.44 34.38 181.91 32.91 183.72 32.91Z" />
	</g>
</svg>