<svg version="1.2" baseProfile="tiny-ps" xmlns="http://www.w3.org/2000/svg" viewBox="0 0 1918 1919" width="1918" height="1919">
	<title>Folder 1</title>
	<style>
		tspan { white-space:pre }
		.shp0 { fill: #57676a } 
		.shp1 { opacity: 0.996;fill: #00090e } 
		.shp2 { opacity: 0.992;fill: #00090e } 
		.shp3 { fill: #00090e } 
		.shp4 { opacity: 0.996;fill: #2b373b } 
		.shp5 { opacity: 0.992;fill: #57676a } 
		.shp6 { opacity: 0.988;fill: #57676a } 
	</style>
	<g id="Folder 1">
		<path id="Ellipse 3 copy" class="shp0" d="M959 1918.22C428.83 1918.22 0.28 1489.67 0.28 959.5C0.28 429.33 428.83 0.78 959 0.78C1489.17 0.78 1917.72 429.33 1917.72 959.5C1917.72 1489.67 1489.17 1918.22 959 1918.22Z" />
		<g id="top TRY">
			<path id="Top" class="shp1" d="M727.74 201.95C724.23 203.01 716.08 206.29 709.64 209.35C703.2 212.38 693.77 217.63 688.69 220.95C683.61 224.24 676.41 229.59 672.68 232.8C668.94 235.98 660.19 244.47 653.23 251.68C646.26 258.88 637.56 268.26 633.89 272.51C630.23 276.76 617.56 293.3 605.68 308.58C591.87 326.35 584 336.39 584 337.7C584 338.84 586.63 341.79 590.12 344.66C593.49 347.4 599.8 351.88 604.13 354.63C608.46 357.35 616.01 361.21 620.9 363.21C626.99 365.68 630.5 366.6 632.01 365.95C633.62 365.27 635.58 361.83 639.16 353.19C641.87 346.66 647.82 334.93 652.38 327.08C656.94 319.28 664.81 307.24 669.88 300.39C674.94 293.57 683.87 282.83 689.73 276.59C695.58 270.35 704.3 261.9 709.11 257.83C713.92 253.75 720.5 248.99 723.72 247.25C726.95 245.48 734.43 242.05 740.37 239.72C748.24 236.63 754.06 235.2 761.8 234.49C767.65 233.94 776.59 234.11 781.66 234.84C786.73 235.52 795.16 237.34 800.41 238.9C805.65 240.41 813.12 243.3 817.02 245.25C820.91 247.16 829.12 251.99 835.28 256.13C841.43 260.21 848.79 265.69 851.61 268.13C854.43 270.55 860.44 276.19 864.98 280.71C869.51 285.2 877.18 293.43 882.02 298.95C886.86 304.46 893.89 313.49 897.64 318.95C901.4 324.41 907.08 333.01 910.27 338.03C913.46 343.06 918.64 351.97 921.78 357.77C924.93 363.6 929.66 373.26 932.29 379.22C934.93 385.22 938.9 395.01 941.13 400.97C943.36 406.98 946.38 416.16 947.84 421.43C949.3 426.72 951.16 434.74 951.98 439.29C952.81 443.86 953.94 452.85 954.5 459.27C955.06 465.7 955.52 473.76 955.53 477.21C955.54 480.67 955.88 484.22 956.29 485.11C956.7 486.01 958.5 487.58 960.29 488.62C961.18 489.14 962.08 489.54 962.8 489.78C963.16 489.89 963.48 489.97 963.73 489.99C963.8 490 963.86 490 963.91 490C963.97 490 964.02 490 964.07 489.99C964.16 489.98 964.23 489.96 964.28 489.92C964.69 489.59 965.02 479.15 965.01 466.7C965 447.59 964.64 441.97 962.66 430.38C961.36 422.83 959.22 412.12 957.88 406.59C956.55 401.1 954.26 392.64 952.78 387.8C951.3 383.01 946.96 371.83 943.1 362.73C939.25 353.71 932.56 339.59 928.23 331.48C923.92 323.42 917.56 312.19 914.12 306.64C910.68 301.1 903.67 290.67 898.54 283.53C893.42 276.36 884.79 265.43 879.39 259.31C873.97 253.13 864.23 243.24 857.74 237.46C851.25 231.58 839.54 222.73 831.74 217.94C823.93 213.03 812.36 207.3 806.02 205.03C799.67 202.66 789.55 200.03 783.54 199.13C777.51 198.16 767.91 197.37 762.2 197.33C756.49 197.23 747.83 197.83 742.97 198.6C738.09 199.34 731.24 200.87 727.74 201.95L727.74 201.95Z" />
			<path id="Path 0" class="shp2" d="M750 223.64C748.62 223.84 744.12 224.49 740 225.08C735.88 225.68 728.9 227.2 724.5 228.46C720.1 229.73 711.32 232.8 705 235.29C698.67 237.78 689.67 241.95 685 244.55C680.32 247.15 671.32 253.45 665 258.54C658.67 263.63 648.93 272.01 643.33 277.15C637.74 282.29 623.57 296.85 611.83 309.51C600.1 322.17 588.8 334.54 586.73 337.01C584.65 339.48 582.95 342.17 582.93 343C582.92 343.82 585.97 347.43 589.71 351.01C593.44 354.59 600.32 360.05 605 363.15C609.67 366.25 616.2 370.13 619.5 371.78C622.8 373.42 627.3 375.33 629.5 376.01C632.5 376.94 634.06 376.96 635.75 376.12C637.03 375.48 639.67 371.66 641.88 367.25C644.01 362.99 648.13 355.45 651.04 350.5C653.94 345.55 658.36 338.57 660.85 335C663.34 331.42 667.64 325.57 670.39 322C673.15 318.42 678.8 311.71 682.95 307.07C687.1 302.43 694.32 295.38 699 291.4C703.67 287.42 710.65 281.84 714.5 278.99C718.35 276.14 723.97 272.4 727 270.66C730.02 268.92 736.1 266.3 740.5 264.83C744.9 263.36 750.97 261.43 754 260.54C757.02 259.66 763.55 258.57 768.5 258.13C773.45 257.69 780.99 257.7 785.25 258.16C789.51 258.62 797.84 260.14 803.75 261.53C809.66 262.92 816.97 264.99 820 266.12C823.02 267.25 828.65 270.01 832.5 272.25C836.35 274.48 844 279.37 849.5 283.1C855.41 287.12 863.69 294.11 869.74 300.2C875.37 305.86 883.38 314.77 887.55 320C891.72 325.22 898.57 334.9 902.78 341.5C906.99 348.1 913.23 358.9 916.65 365.5C920.07 372.1 925.77 384.92 929.32 394C932.86 403.07 936.89 414.1 938.27 418.5C939.65 422.9 942.17 432.57 943.85 440C945.54 447.42 947.84 461.15 948.95 470.5C950.07 479.85 950.99 489.64 950.99 492.25C951 496.15 951.49 497.46 953.75 499.53C955.26 500.93 957.51 502.05 958.75 502.03C961 502 961 502 960.95 484.25C960.92 474.49 960.51 463.12 960.04 459C959.56 454.87 958.23 445.42 957.07 438C955.91 430.57 953.4 417.75 951.48 409.5C949.57 401.25 945.93 389.1 943.39 382.5C940.86 375.9 936.1 364.2 932.81 356.5C929.53 348.8 924.11 337.32 920.77 331C917.43 324.67 911.03 313.87 906.55 307C902.07 300.12 895.77 291.35 892.56 287.5C889.35 283.65 883.75 277.43 880.11 273.67C876.47 269.92 870.12 264.01 866 260.54C861.87 257.08 854.22 251.55 849 248.26C843.77 244.97 836.35 240.69 832.5 238.76C828.65 236.82 821.22 233.88 816 232.22C810.77 230.55 802.22 228.27 797 227.14C791.77 226.02 782.55 224.62 776.5 224.05C770.45 223.47 762.57 223.06 759 223.14C755.42 223.21 751.37 223.44 750 223.64Z" />
			<path id="Ellipse 6 copy" class="shp3" d="M587.5 528C534.69 528 492 485.31 492 432.5C492 379.69 534.69 337 587.5 337C640.31 337 683 379.69 683 432.5C683 485.31 640.31 528 587.5 528Z" />
			<path id="Ellipse 6 copy 3" class="shp3" d="M568.5 565C491.36 565 429 502.64 429 425.5C429 348.36 491.36 286 568.5 286C645.64 286 708 348.36 708 425.5C708 502.64 645.64 565 568.5 565Z" />
		</g>
		<g id="Group 1">
			<g id="whole">
				<g id="Folder 2 copy 2">
					<g id="Path 0 copy">
						<path id="Path 0" class="shp3" d="M950.5 433.7C949.4 433.82 940.4 434.1 930.5 434.32C917.73 434.61 911.19 435.18 908 436.28C905.52 437.13 896.07 439.24 887 440.97C877.92 442.69 860.82 446.72 849 449.92C837.17 453.11 822.77 457.55 817 459.78C811.22 462 798.62 467.27 789 471.49C779.37 475.7 766.77 481.17 761 483.64C755.22 486.11 745.32 490.86 739 494.19C732.67 497.52 723.22 502.76 718 505.82C712.77 508.88 704 514.28 698.5 517.82C693 521.36 684.67 527.21 680 530.82C675.32 534.43 667.22 540.98 662 545.38C656.77 549.79 645.52 559.77 637 567.58C628.47 575.38 609.12 594.31 594 609.64C578.87 624.97 559.07 645.61 549.98 655.5C540.89 665.4 529.63 677.77 524.96 683C520.28 688.22 514.24 695.42 511.54 699C508.83 702.57 502.09 710.6 496.56 716.84C491.03 723.08 482.06 733.2 476.63 739.34C471.2 745.48 464.85 752.97 462.52 756C460.19 759.02 453 769.37 446.54 779C440.08 788.62 431.24 802.46 426.9 809.75C422.55 817.04 416.36 828.29 413.14 834.75C409.91 841.21 405.67 850.55 403.71 855.5C401.75 860.45 398.95 867.2 397.47 870.5C396 873.8 394.61 878.07 394.38 880C394.15 881.92 391.42 890.92 388.32 900C385.22 909.07 382.32 916.95 381.88 917.5C381.38 918.13 370.3 913.67 352.29 905.6C336.46 898.51 318.77 890.58 313 887.98C307.22 885.38 286.75 876.27 267.5 867.73C248.25 859.2 224.17 848.59 214 844.16C203.82 839.72 193.47 835.39 191 834.53C188.52 833.66 184.92 832.98 183 833L179.5 833.05C186.75 837.27 193.73 841.9 199.68 846.05C205.63 850.2 220.62 860.58 233 869.12C245.37 877.65 258.65 886.49 262.5 888.76C266.35 891.04 271.97 894.43 275 896.3C278.02 898.18 283.65 901.51 287.5 903.72C291.35 905.93 307.1 914.24 322.5 922.19C337.9 930.14 355.9 939.21 362.5 942.35C374.17 947.9 374.48 948.13 373.82 950.78C373.45 952.28 372.47 958.67 371.65 965C370.82 971.32 370.12 977.17 370.08 978C370.04 978.82 369.77 981.52 369.49 984C369.2 986.47 368.78 990.97 368.54 994C368.3 997.02 367.87 1002.65 367.59 1006.5C367.3 1010.35 366.8 1016.65 366.48 1020.5C366.15 1024.35 365.71 1028.4 365.49 1029.5C365.27 1030.6 364.28 1031.54 363.29 1031.6C362.31 1031.65 356.55 1032.67 350.5 1033.86C344.45 1035.05 332.75 1037.14 324.5 1038.5C316.25 1039.86 307.7 1041.21 305.5 1041.49C303.3 1041.77 297.67 1042.67 293 1043.48C288.32 1044.3 282.47 1045.21 280 1045.5C277.52 1045.8 268.52 1047.12 260 1048.45C251.47 1049.77 241.8 1051.13 238.5 1051.46C235.2 1051.79 230.47 1052.27 228 1052.53C225.52 1052.78 217.42 1053.45 210 1054C202.57 1054.55 192.9 1055.02 188.5 1055.05C184.1 1055.07 179.31 1055.63 177.85 1056.3C176.4 1056.96 174.04 1058.96 172.6 1060.75L170 1064C175.31 1068.07 176.15 1068.16 185 1067.36C190.22 1066.89 200.57 1066.5 208 1066.5C215.42 1066.5 228.7 1066.9 237.5 1067.38C246.3 1067.87 255.75 1068.4 258.5 1068.56C261.25 1068.72 267.55 1069.1 272.5 1069.41C277.45 1069.71 293.65 1070.21 308.5 1070.51C323.35 1070.82 341.8 1071.26 349.5 1071.49C359.23 1071.79 363.84 1072.31 364.61 1073.21C365.23 1073.92 366.24 1078.32 366.87 1083C367.49 1087.67 368.01 1093.52 368.02 1096C368.02 1098.47 368.75 1103.42 369.64 1107C370.52 1110.57 371.19 1114.29 371.12 1115.25C371.05 1116.21 371.45 1117.22 372 1117.5C372.55 1117.77 372.77 1118.45 372.5 1119C372.22 1119.55 372.32 1120.56 372.7 1121.25C373.09 1121.94 373.51 1123.4 373.64 1124.5C373.77 1125.6 375.04 1132.12 376.46 1139C378.92 1150.88 378.96 1151.56 377.27 1152.72C376.3 1153.38 374.94 1154.4 374.25 1154.97C373.56 1155.53 372.76 1155.66 372.47 1155.25C372.18 1154.84 371.96 1155.06 371.97 1155.75C371.99 1156.44 371.66 1156.92 371.25 1156.82C370.84 1156.72 368.8 1157.51 366.73 1158.57C364.65 1159.63 362.97 1160.84 362.98 1161.25C362.99 1161.66 362.55 1161.77 362 1161.5C361.45 1161.22 361 1161.34 361 1161.75C361 1162.16 360.44 1162.56 359.75 1162.63C359.06 1162.7 354.22 1165.15 349 1168.06C343.77 1170.98 333.65 1176.25 326.5 1179.78C319.35 1183.32 313.27 1186.5 313 1186.85C312.72 1187.21 311.82 1187.66 311 1187.84C310.17 1188.03 308.38 1188.99 307 1189.97C305.62 1190.94 299.55 1194.32 293.5 1197.46C287.45 1200.61 279.35 1204.9 275.5 1207C271.65 1209.1 267.94 1211.31 267.25 1211.91C266.56 1212.51 265.66 1213.03 265.25 1213.07C264.84 1213.11 262.25 1214.47 259.5 1216.1C256.75 1217.73 248.42 1222.94 241 1227.67C233.57 1232.39 219.4 1241.29 209.5 1247.44C199.6 1253.58 189.47 1260.06 187 1261.84L182.5 1265.06C187.92 1264.99 191.97 1264.36 195 1263.62C198.02 1262.88 207.7 1259.25 216.5 1255.57C225.3 1251.88 240.82 1245.1 251 1240.5C261.17 1235.9 287.5 1224.05 309.5 1214.16C331.5 1204.28 357.49 1192.55 367.25 1188.1C377.01 1183.64 385.15 1180.11 385.33 1180.25C385.52 1180.39 389.77 1193.32 394.79 1209C399.8 1224.67 405.3 1242.9 407 1249.5C408.7 1256.1 412.95 1269.82 416.46 1280C419.96 1290.17 426.3 1307.05 430.54 1317.5C434.78 1327.95 439.48 1339.65 441 1343.5C442.51 1347.35 446.76 1356.8 450.44 1364.5C454.12 1372.2 459.33 1383 462.02 1388.5C464.72 1394 470.35 1403.67 474.55 1410C478.75 1416.32 487.25 1428.25 493.44 1436.5C499.64 1444.75 508.46 1456 513.05 1461.5C517.64 1467 527.72 1477.96 535.45 1485.86C543.18 1493.75 554.9 1505.02 561.5 1510.9C568.1 1516.78 577.1 1524.49 581.49 1528.04C585.89 1531.59 596.12 1538.89 604.24 1544.25C613.02 1550.05 620.01 1554 621.5 1554C622.87 1554 638.74 1556.68 656.75 1559.96C674.76 1563.24 696.92 1567.04 706 1568.4C715.07 1569.77 727.45 1571.57 733.5 1572.41C739.55 1573.25 752.82 1574.84 763 1575.95C773.17 1577.06 793.2 1578.87 807.5 1579.97C821.8 1581.08 841.15 1582.44 850.5 1582.99C859.85 1583.54 886.85 1584.49 910.5 1585.09C934.15 1585.7 968.8 1585.92 987.5 1585.57C1006.2 1585.23 1032.52 1584.49 1046 1583.92C1059.47 1583.35 1085.12 1581.77 1103 1580.41C1120.87 1579.05 1143.82 1577.04 1154 1575.95C1164.17 1574.85 1177.45 1573.27 1183.5 1572.42C1189.55 1571.58 1203.27 1569.56 1214 1567.93C1224.72 1566.3 1238 1564.14 1243.5 1563.13C1249 1562.11 1262.95 1559.62 1274.5 1557.57C1286.05 1555.53 1296.4 1553.7 1297.5 1553.5C1298.6 1553.3 1306.25 1548.66 1314.5 1543.19C1322.75 1537.72 1335.34 1528.35 1342.47 1522.37C1349.61 1516.39 1363.05 1504.07 1372.35 1495C1381.66 1485.92 1394.26 1472.65 1400.37 1465.5C1406.48 1458.35 1417.08 1445.07 1423.93 1436C1430.77 1426.92 1439.63 1414.55 1443.61 1408.5C1447.81 1402.11 1455.53 1387.66 1462.03 1374C1468.18 1361.07 1474.47 1347.35 1476 1343.5C1477.53 1339.65 1480.88 1331.32 1483.46 1325C1486.03 1318.67 1489.44 1310.35 1491.05 1306.5C1492.65 1302.65 1496.27 1292.97 1499.09 1285C1501.9 1277.02 1506.21 1263.07 1508.66 1254C1511.11 1244.92 1517.22 1224.67 1522.24 1209C1527.26 1193.32 1531.39 1180.37 1531.43 1180.21C1531.47 1180.05 1534.2 1181.02 1537.5 1182.35C1540.8 1183.69 1550.47 1187.93 1559 1191.78C1567.52 1195.63 1585.07 1203.6 1598 1209.5C1610.92 1215.4 1635.9 1226.64 1653.5 1234.48C1671.1 1242.32 1692.02 1251.44 1700 1254.75C1707.97 1258.06 1716.75 1261.53 1719.5 1262.47C1722.25 1263.41 1726.97 1264.4 1730 1264.67L1735.5 1265.17C1711.12 1249.15 1698.54 1241.12 1691.81 1237C1685.08 1232.88 1675.96 1227.08 1671.54 1224.11C1667.12 1221.15 1659.9 1216.68 1655.5 1214.17C1651.1 1211.66 1643.67 1207.64 1639 1205.24C1634.32 1202.83 1625.1 1197.86 1618.5 1194.2C1611.9 1190.53 1606.16 1187.64 1605.75 1187.77C1605.34 1187.89 1605.01 1187.66 1605.03 1187.25C1605.05 1186.84 1599.98 1184.06 1593.78 1181.09C1587.58 1178.11 1582.27 1175.41 1582 1175.09C1581.72 1174.76 1576.66 1172.14 1570.75 1169.25C1564.84 1166.36 1558.09 1162.78 1555.75 1161.29C1553.41 1159.79 1551.16 1158.67 1550.75 1158.79C1550.34 1158.9 1550 1158.55 1550 1158C1550 1157.45 1549.55 1157.22 1549 1157.5C1548.45 1157.77 1547.89 1157.65 1547.75 1157.21C1547.61 1156.78 1545.36 1155.2 1542.75 1153.71C1539.33 1151.76 1538.12 1150.51 1538.44 1149.25C1538.69 1148.29 1539.61 1143.22 1540.49 1138C1541.37 1132.77 1542.75 1126.47 1543.56 1124C1544.37 1121.52 1544.8 1119.27 1544.52 1119C1544.24 1118.72 1544.44 1118.05 1544.96 1117.5C1545.48 1116.95 1546.57 1112.9 1547.39 1108.5C1548.21 1104.1 1549.22 1096.67 1549.64 1092C1550.06 1087.32 1550.43 1081.7 1550.45 1079.5C1550.49 1076.31 1551.01 1075.21 1553 1074.06C1554.37 1073.27 1556.17 1072.53 1557 1072.41C1557.82 1072.29 1560.75 1071.96 1563.5 1071.66C1566.25 1071.37 1577.27 1070.88 1588 1070.57C1598.72 1070.26 1618.3 1069.73 1631.5 1069.4C1644.7 1069.07 1657.75 1068.62 1660.5 1068.4C1663.25 1068.18 1682.82 1067.86 1704 1067.69C1738.06 1067.42 1742.82 1067.19 1745.25 1065.69L1748 1064C1743.92 1058.96 1741.11 1056.92 1739.12 1056.2C1737.01 1055.45 1726.72 1054.52 1714.5 1053.97C1702.95 1053.46 1687.65 1052.36 1680.5 1051.53C1673.35 1050.7 1666.15 1049.79 1664.5 1049.52C1662.85 1049.24 1655.87 1048.16 1649 1047.12C1642.12 1046.07 1635.82 1045.16 1635 1045.09C1634.17 1045.02 1632.37 1044.82 1631 1044.65C1629.62 1044.47 1627.6 1044.04 1626.5 1043.67C1625.4 1043.31 1622.02 1042.74 1619 1042.41C1615.97 1042.08 1612.6 1041.71 1611.5 1041.6C1610.4 1041.49 1609.05 1041.11 1608.5 1040.76C1607.95 1040.41 1604.91 1039.87 1601.75 1039.56C1598.59 1039.25 1595.55 1038.77 1595 1038.5C1594.45 1038.22 1591.64 1037.74 1588.75 1037.41C1585.86 1037.09 1582.37 1036.7 1581 1036.54C1579.63 1036.38 1576.47 1035.93 1574 1035.55C1571.52 1035.16 1566.8 1034.16 1563.5 1033.32C1560.2 1032.48 1556.15 1031.39 1554.5 1030.91C1551.54 1030.04 1551.49 1029.9 1550.78 1021.26C1550.39 1016.44 1549.82 1008.67 1549.52 1004C1549.22 999.32 1548.51 991.9 1547.94 987.5C1547.38 983.1 1546.51 975.45 1546.02 970.5C1545.53 965.55 1544.67 958.57 1544.1 955C1543.54 951.42 1543.17 948.43 1543.29 948.35C1543.4 948.27 1546.65 946.63 1550.5 944.72C1554.35 942.81 1570.32 934.75 1586 926.81C1601.67 918.87 1623.16 907.34 1633.75 901.19C1644.34 895.03 1653.22 890 1653.5 890C1653.77 890 1662.44 884.35 1672.75 877.44C1683.06 870.54 1700.5 858.59 1711.5 850.89C1722.5 843.18 1733.07 836.15 1735 835.26L1738.5 833.63C1733.85 833.04 1729.13 834.07 1725 835.55C1720.87 837.03 1709.85 841.6 1700.5 845.72C1691.15 849.83 1667.75 860.17 1648.5 868.69C1629.25 877.2 1602.47 889.06 1589 895.04C1575.52 901.01 1557.97 908.82 1550 912.38C1542.02 915.94 1535.41 918.77 1535.3 918.68C1535.19 918.58 1532.38 910.51 1529.05 900.75C1525.72 890.99 1523 881.76 1522.99 880.25C1522.98 878.74 1521.83 875.02 1520.42 872C1519.01 868.97 1515.82 861.55 1513.34 855.5C1510.86 849.45 1506.36 839.55 1503.33 833.5C1500.31 827.45 1494.87 817.55 1491.24 811.5C1487.61 805.45 1480.53 794.2 1475.52 786.5C1470.5 778.8 1463.32 768.22 1459.55 763C1455.79 757.77 1449.45 749.67 1445.47 745C1441.49 740.32 1433.86 731.77 1428.52 726C1423.18 720.22 1413.74 709.2 1407.55 701.5C1401.35 693.8 1388.91 679.4 1379.9 669.5C1370.89 659.6 1355.36 642.95 1345.38 632.5C1335.4 622.05 1316.5 602.92 1303.37 589.99C1290.24 577.05 1273.42 561.21 1266 554.78C1258.57 548.35 1248.22 539.66 1243 535.48C1237.77 531.3 1227.87 524.12 1221 519.54C1214.12 514.96 1202.42 507.74 1195 503.49C1187.57 499.24 1177.9 493.96 1173.5 491.75C1169.1 489.55 1160.32 485.51 1154 482.77C1147.67 480.03 1138.45 476.08 1133.5 473.99C1128.55 471.9 1120.67 468.42 1116 466.25C1111.32 464.08 1105.02 461.49 1102 460.5C1098.97 459.51 1094.47 457.83 1092 456.78C1089.52 455.73 1078.05 452.41 1066.5 449.39C1054.95 446.37 1041.22 443.06 1036 442.03C1030.77 441 1023.57 439.64 1020 439.01C1016.42 438.38 1010.57 437.02 1007 435.99C1001.63 434.44 996.31 434.06 976.5 433.8C963.3 433.62 951.6 433.58 950.5 433.7Z" />
						<path id="Path 1" class="shp4" d="M184 836.5C184 836.77 184.88 840.49 185.96 844.75C187.04 849.01 188.38 857 188.95 862.5C189.51 868 190.47 886.9 191.08 904.5C191.7 922.1 191.91 947.75 191.56 961.5C191.21 975.25 190.46 991.9 189.9 998.5C189.33 1005.1 187.95 1015.22 186.83 1021C185.72 1026.77 183.11 1036.45 181.03 1042.5C178.96 1048.55 176.87 1054.34 176.38 1055.36C175.58 1057.05 175.74 1057.12 178.25 1056.11C179.76 1055.5 184.49 1055 188.75 1055C193.01 1055 202.57 1054.55 210 1054C217.42 1053.45 225.52 1052.78 228 1052.52C230.47 1052.26 235.2 1051.78 238.5 1051.46C241.8 1051.13 251.47 1049.78 260 1048.45C268.52 1047.12 277.52 1045.8 280 1045.5C282.47 1045.21 288.32 1044.3 293 1043.48C297.67 1042.67 303.3 1041.77 305.5 1041.49C307.7 1041.21 316.25 1039.86 324.5 1038.5C332.75 1037.14 344.45 1035.05 350.5 1033.86C356.55 1032.67 362.31 1031.65 363.29 1031.6C364.28 1031.54 365.27 1030.6 365.49 1029.5C365.71 1028.4 366.15 1024.35 366.48 1020.5C366.8 1016.65 367.3 1010.35 367.59 1006.5C367.87 1002.65 368.3 997.02 368.54 994C368.78 990.97 369.2 986.47 369.49 984C369.77 981.52 370.04 978.82 370.08 978C370.12 977.17 370.82 971.32 371.65 965C372.47 958.67 373.45 952.28 373.82 950.78C374.48 948.13 374.17 947.9 362.5 942.35C355.9 939.21 337.9 930.14 322.5 922.19C307.1 914.24 291.35 905.93 287.5 903.72C283.65 901.51 278.02 898.18 275 896.3C271.97 894.43 266.35 891.04 262.5 888.76C258.65 886.49 245.37 877.65 233 869.12C220.62 860.59 206.22 850.69 201 847.12C195.77 843.56 190.26 839.6 188.75 838.32C187.24 837.04 185.55 836 185 836C184.45 836 184 836.22 184 836.5ZM1712 850.5C1700.72 858.42 1683.06 870.54 1672.75 877.45C1662.44 884.35 1653.77 890 1653.5 890C1653.22 890 1644.34 895.03 1633.75 901.19C1623.16 907.34 1601.67 918.87 1586 926.81C1570.32 934.75 1554.35 942.81 1550.5 944.72C1546.65 946.63 1543.4 948.27 1543.29 948.35C1543.17 948.43 1543.54 951.42 1544.1 955C1544.67 958.57 1545.53 965.55 1546.02 970.5C1546.51 975.45 1547.38 983.1 1547.94 987.5C1548.51 991.9 1549.22 999.32 1549.52 1004C1549.82 1008.67 1550.39 1016.44 1550.78 1021.26C1551.49 1029.9 1551.54 1030.04 1554.5 1030.91C1556.15 1031.39 1560.2 1032.48 1563.5 1033.32C1566.8 1034.16 1571.52 1035.16 1574 1035.55C1576.47 1035.93 1579.63 1036.38 1581 1036.54C1582.37 1036.7 1585.86 1037.09 1588.75 1037.41C1591.64 1037.74 1594.45 1038.22 1595 1038.5C1595.55 1038.77 1598.59 1039.25 1601.75 1039.56C1604.91 1039.87 1607.95 1040.41 1608.5 1040.76C1609.05 1041.11 1610.4 1041.49 1611.5 1041.6C1612.6 1041.71 1615.97 1042.08 1619 1042.41C1622.02 1042.74 1625.4 1043.31 1626.5 1043.67C1627.6 1044.04 1629.62 1044.47 1631 1044.65C1632.37 1044.82 1634.17 1045.02 1635 1045.09C1635.82 1045.16 1642.12 1046.07 1649 1047.12C1655.87 1048.16 1662.85 1049.24 1664.5 1049.52C1666.15 1049.79 1673.35 1050.7 1680.5 1051.53C1687.65 1052.36 1702.95 1053.45 1714.5 1053.96C1726.05 1054.46 1736.85 1055.36 1738.5 1055.95C1740.15 1056.54 1741.57 1056.91 1741.66 1056.76C1741.75 1056.62 1739.88 1050.65 1737.49 1043.5C1735.11 1036.35 1732.47 1027.12 1731.63 1023C1730.79 1018.87 1729.62 1011.67 1729.03 1007C1728.44 1002.32 1727.47 985.9 1726.87 970.5C1726.09 950.23 1726.1 933.25 1726.9 909C1727.51 890.57 1728.48 870.55 1729.06 864.5C1729.64 858.45 1730.77 850.35 1731.58 846.5C1732.39 842.65 1733.2 838.71 1733.38 837.75C1733.57 836.79 1733.44 836.02 1733.11 836.05C1732.77 836.08 1723.27 842.58 1712 850.5ZM186.46 1067.32L177.42 1068.5C180.97 1074.7 183.08 1079.87 184.4 1084C185.72 1088.12 187.54 1096.45 188.45 1102.5C189.36 1108.55 190.56 1122.95 191.12 1134.5C191.69 1146.05 191.87 1164.27 191.53 1175C191.2 1185.72 190.47 1202.15 189.93 1211.5C189.38 1220.85 188.26 1235.25 187.44 1243.5C186.62 1251.75 185.73 1259.29 185.47 1260.25C185.2 1261.24 185.54 1261.99 186.25 1261.97C186.94 1261.96 188.17 1261.33 189 1260.57C189.82 1259.81 198.82 1254.03 209 1247.73C219.17 1241.42 233.57 1232.39 241 1227.67C248.42 1222.94 256.75 1217.73 259.5 1216.1C262.25 1214.47 264.95 1213.02 265.5 1212.88C266.05 1212.73 266.95 1212.21 267.5 1211.72C268.05 1211.22 271.65 1209.1 275.5 1207C279.35 1204.9 287.45 1200.61 293.5 1197.46C299.55 1194.32 305.62 1190.94 307 1189.97C308.38 1188.99 310.17 1188.03 311 1187.84C311.82 1187.66 312.72 1187.21 313 1186.85C313.27 1186.5 319.35 1183.32 326.5 1179.78C333.65 1176.25 343.77 1170.98 349 1168.06C354.22 1165.15 359.06 1162.7 359.75 1162.63C360.44 1162.56 361 1162.16 361 1161.75C361 1161.34 361.45 1161.22 362 1161.5C362.55 1161.77 362.99 1161.66 362.98 1161.25C362.97 1160.84 364.65 1159.63 366.73 1158.57C368.8 1157.51 370.84 1156.72 371.25 1156.82C371.66 1156.92 371.99 1156.44 371.97 1155.75C371.96 1155.06 372.18 1154.84 372.47 1155.25C372.76 1155.66 373.56 1155.53 374.25 1154.97C374.94 1154.4 376.3 1153.38 377.27 1152.72C378.96 1151.56 378.92 1150.88 376.46 1139C375.04 1132.12 373.77 1125.6 373.64 1124.5C373.51 1123.4 373.09 1121.94 372.7 1121.25C372.32 1120.56 372.22 1119.55 372.5 1119C372.77 1118.45 372.55 1117.77 372 1117.5C371.45 1117.22 371.05 1116.21 371.12 1115.25C371.19 1114.29 370.52 1110.57 369.64 1107C368.75 1103.42 368.02 1098.47 368.02 1096C368.01 1093.52 367.49 1087.67 366.87 1083C366.24 1078.32 365.23 1073.92 364.61 1073.21C363.84 1072.31 359.23 1071.79 349.5 1071.49C341.8 1071.26 323.35 1070.82 308.5 1070.51C293.65 1070.21 278.35 1069.76 274.5 1069.52C270.65 1069.29 261.87 1068.8 255 1068.44C248.12 1068.08 241.37 1067.64 240 1067.47C238.62 1067.29 228.05 1066.92 216.5 1066.64C203.11 1066.32 192.22 1066.56 186.46 1067.32ZM1676.85 1067.47C1676.66 1067.66 1670.87 1068.07 1664 1068.39C1657.12 1068.7 1642.05 1069.19 1630.5 1069.48C1618.95 1069.77 1600.05 1070.26 1588.5 1070.59C1576.95 1070.91 1565.47 1071.4 1563 1071.68C1560.52 1071.97 1557.82 1072.3 1557 1072.41C1556.17 1072.53 1554.37 1073.27 1553 1074.06C1551.01 1075.21 1550.49 1076.31 1550.45 1079.5C1550.43 1081.7 1550.06 1087.32 1549.64 1092C1549.22 1096.67 1548.21 1104.1 1547.39 1108.5C1546.57 1112.9 1545.48 1116.95 1544.96 1117.5C1544.44 1118.05 1544.24 1118.72 1544.52 1119C1544.8 1119.27 1544.37 1121.52 1543.56 1124C1542.75 1126.47 1541.37 1132.77 1540.49 1138C1539.61 1143.22 1538.69 1148.29 1538.44 1149.25C1538.12 1150.51 1539.33 1151.76 1542.75 1153.71C1545.36 1155.2 1547.61 1156.78 1547.75 1157.21C1547.89 1157.65 1548.45 1157.77 1549 1157.5C1549.55 1157.22 1550 1157.45 1550 1158C1550 1158.55 1550.34 1158.9 1550.75 1158.79C1551.16 1158.67 1553.41 1159.79 1555.75 1161.29C1558.09 1162.78 1564.84 1166.36 1570.75 1169.25C1576.66 1172.14 1581.72 1174.76 1582 1175.09C1582.27 1175.41 1587.58 1178.11 1593.78 1181.09C1599.98 1184.06 1605.05 1186.84 1605.03 1187.25C1605.01 1187.66 1605.34 1187.89 1605.75 1187.77C1606.16 1187.64 1611.9 1190.53 1618.5 1194.2C1625.1 1197.86 1634.32 1202.83 1639 1205.24C1643.67 1207.64 1651.1 1211.66 1655.5 1214.17C1659.9 1216.68 1667.12 1221.15 1671.54 1224.11C1675.96 1227.08 1685.08 1232.88 1691.81 1237C1698.54 1241.12 1710.11 1248.44 1717.52 1253.25C1724.93 1258.06 1731.34 1261.81 1731.75 1261.59C1732.16 1261.36 1731.98 1256.3 1731.34 1250.34C1730.7 1244.38 1729.68 1232.97 1729.08 1225C1728.49 1217.02 1727.51 1199.92 1726.92 1187C1726.33 1174.07 1726.13 1156.07 1726.47 1147C1726.82 1137.92 1727.54 1124.87 1728.07 1118C1728.61 1111.12 1729.7 1101.9 1730.5 1097.5C1731.3 1093.1 1733.12 1086.12 1734.53 1082C1735.94 1077.87 1737.95 1073.15 1738.99 1071.5L1740.88 1068.5C1729.74 1067.3 1715.41 1066.99 1701.85 1067.04C1688.3 1067.09 1677.05 1067.28 1676.85 1067.47Z" />
					</g>
				</g>
			</g>
			<path id="Path 0" class="shp5" d="M851.33 1190.15C850.56 1192.76 849.51 1197.35 848.99 1200.36C848.47 1203.38 846.77 1212.74 845.2 1221.17C843.64 1229.6 841.46 1241.43 840.36 1247.45C839.27 1253.48 837.04 1265.55 835.42 1274.28C833.79 1283.01 832.04 1291.88 831.51 1293.99C830.99 1296.1 829.57 1303.25 828.36 1309.87C827.14 1316.5 825.13 1327.58 823.88 1334.51C822.63 1341.44 820.62 1351.78 819.41 1357.51C818.21 1363.23 816.68 1370.37 816.02 1373.38C815.36 1376.4 815.12 1381.82 815.49 1385.43C815.85 1389.04 816.65 1395.45 817.26 1399.67C817.87 1403.88 819.12 1408.44 820.03 1409.79C821.5 1411.97 822.94 1412.34 832.37 1412.96C838.23 1413.35 853.62 1413.33 866.57 1412.92C882.49 1412.41 890.56 1411.74 891.52 1410.84C892.55 1409.88 892.74 1407.59 892.22 1402.4C891.83 1398.49 890.84 1392.57 890.02 1389.26C889.2 1385.95 888.03 1379.54 887.41 1375.03C886.79 1370.51 885.56 1362.62 884.66 1357.51C883.76 1352.39 881.74 1340.81 880.17 1331.77C878.6 1322.74 876.65 1311.65 875.85 1307.13C875.04 1302.62 872.83 1289.31 870.93 1277.57C869.04 1265.82 867 1254.49 866.41 1252.38C865.82 1250.27 864.68 1244.36 863.88 1239.24C863.08 1234.12 861.61 1224.76 860.62 1218.43C859.63 1212.11 858.1 1203.86 857.22 1200.09C856.34 1196.33 855.74 1192.08 855.88 1190.64C856.02 1189.21 855.37 1187.45 854.43 1186.73C852.98 1185.61 852.52 1186.12 851.33 1190.15ZM1069.03 1186.89C1068.19 1187.62 1067.61 1189.34 1067.73 1190.73C1067.85 1192.11 1067.22 1196.33 1066.34 1200.09C1065.46 1203.86 1063.93 1212.11 1062.94 1218.43C1061.95 1224.76 1060.49 1234.12 1059.68 1239.24C1058.88 1244.36 1057.74 1250.27 1057.15 1252.38C1056.56 1254.49 1054.53 1265.82 1052.63 1277.57C1050.73 1289.31 1048.52 1302.62 1047.72 1307.13C1046.91 1311.65 1044.97 1322.74 1043.4 1331.77C1041.83 1340.81 1039.81 1352.39 1038.91 1357.51C1038.01 1362.62 1036.77 1370.51 1036.16 1375.03C1035.54 1379.54 1034.36 1385.95 1033.54 1389.26C1032.72 1392.57 1031.73 1398.49 1031.34 1402.4C1030.82 1407.59 1031.02 1409.88 1032.05 1410.84C1033.01 1411.74 1041.08 1412.41 1057 1412.92C1069.94 1413.33 1085.33 1413.35 1091.2 1412.96C1100.62 1412.34 1102.07 1411.97 1103.53 1409.79C1104.45 1408.44 1105.7 1403.88 1106.31 1399.67C1106.92 1395.45 1107.72 1389.04 1108.08 1385.43C1108.44 1381.82 1108.2 1376.4 1107.54 1373.38C1106.89 1370.37 1105.36 1363.23 1104.15 1357.51C1102.95 1351.78 1100.94 1341.44 1099.69 1334.51C1098.44 1327.58 1096.42 1316.5 1095.21 1309.87C1093.99 1303.25 1092.58 1296.1 1092.06 1293.99C1091.55 1291.88 1089.54 1281.54 1087.61 1271C1085.68 1260.46 1082.97 1245.92 1081.6 1238.69C1080.22 1231.46 1078.04 1219.64 1076.75 1212.41C1075.46 1205.18 1073.87 1196.81 1073.22 1193.79C1072.57 1190.78 1071.71 1187.7 1071.3 1186.94C1070.72 1185.87 1070.23 1185.85 1069.03 1186.89Z" />
			<path id="Path 0" class="shp4" d="M940.99 1062.96C936.47 1063.39 926.38 1064.57 918.55 1065.58C910.73 1066.59 899.4 1068.38 893.38 1069.55C887.36 1070.73 880.71 1072.18 878.61 1072.78C876.5 1073.37 866.89 1076.1 857.26 1078.85C847.63 1081.59 838.03 1084.51 835.92 1085.34C833.82 1086.16 826.67 1088.89 820.05 1091.41C813.43 1093.92 806.54 1096.62 804.73 1097.4C802.92 1098.19 797.88 1100.36 793.51 1102.24C789.15 1104.11 785.33 1105.64 785.03 1105.64C784.73 1105.64 779.44 1108.05 773.27 1110.99C767.1 1113.94 760.32 1117.12 758.22 1118.07C756.11 1119.02 750.69 1121.85 746.18 1124.36C741.66 1126.87 735.51 1130.1 732.5 1131.55C729.49 1132.99 726.04 1134.74 724.84 1135.43C723.63 1136.13 718.46 1139.13 713.34 1142.11C708.23 1145.1 702.56 1148.38 700.76 1149.41C698.95 1150.44 696.27 1151.98 694.79 1152.83C693.32 1153.68 691.6 1154.77 690.96 1155.25C690.33 1155.73 687.23 1157.82 684.07 1159.9C680.91 1161.98 677.95 1163.66 677.5 1163.63C677.05 1163.6 675.94 1164.41 675.04 1165.42C674.14 1166.43 672.41 1167.68 671.21 1168.2C670 1168.72 668.06 1169.77 666.89 1170.52C665.72 1171.28 664.24 1172.27 663.61 1172.73C662.97 1173.18 660.98 1174.66 659.18 1176.01C657.38 1177.36 652.26 1180.93 647.8 1183.94C643.33 1186.95 638.28 1190.28 636.57 1191.33C634.85 1192.38 633.45 1193.74 633.45 1194.34C633.45 1194.94 631.97 1196.18 630.17 1197.08C628.36 1197.98 625.67 1199.83 624.19 1201.19C622.7 1202.54 620.12 1204.77 618.44 1206.14C616.76 1207.5 614.16 1209.46 612.66 1210.49C611.15 1211.52 608.71 1213.36 607.22 1214.58C605.74 1215.79 602.7 1218.52 600.46 1220.62C598.22 1222.73 594.51 1226.09 592.21 1228.08C589.91 1230.07 582.96 1236.73 576.77 1242.86C570.58 1249 565.55 1254.27 565.59 1254.57C565.62 1254.87 564.41 1255.73 562.89 1256.49C561.37 1257.24 560.11 1258.47 560.09 1259.22C560.08 1259.98 556.84 1264.04 552.89 1268.26C548.94 1272.47 544.8 1277.4 543.69 1279.21C542.59 1281.02 540.39 1283.97 538.8 1285.78C537.21 1287.59 535.21 1290.42 534.34 1292.08C533.47 1293.73 531.78 1296.07 530.57 1297.28C529.37 1298.48 528.38 1300.21 528.38 1301.11C528.38 1302.01 526.9 1305.83 525.08 1309.6C522.49 1314.95 521.49 1319.07 520.49 1328.49C519.52 1337.62 519.51 1342.91 520.47 1350.39C521.55 1358.84 522.44 1361.49 526.72 1369C529.46 1373.82 534.53 1380.64 537.98 1384.15C541.43 1387.66 546.98 1392.59 550.31 1395.1C553.65 1397.61 558.08 1400.46 560.16 1401.44C562.25 1402.41 566.66 1404.01 569.97 1404.98C573.41 1405.99 579.98 1406.76 585.29 1406.77C591.16 1406.78 597.23 1406.03 601.71 1404.74C605.62 1403.61 610.55 1401.67 612.66 1400.44C614.76 1399.2 617.1 1396.92 617.85 1395.37C618.61 1393.82 619.22 1391.32 619.22 1389.81C619.22 1388.3 618.73 1386.09 618.13 1384.88C617.53 1383.68 614.69 1381.1 611.83 1379.16C608.98 1377.22 603.8 1372.78 600.34 1369.3C596.88 1365.83 593.68 1361.68 593.23 1360.1C592.78 1358.52 592.04 1357.04 591.59 1356.81C591.14 1356.59 590.77 1355.18 590.77 1353.67C590.77 1352.17 590.27 1350.94 589.67 1350.94C589.04 1350.94 588.59 1347.57 588.6 1343C588.61 1338.63 589.3 1331.36 590.12 1326.84C590.95 1322.33 592.48 1316.66 593.52 1314.25C594.56 1311.84 598.19 1305.68 601.57 1300.57C604.96 1295.45 612.04 1286.33 617.31 1280.31C622.59 1274.28 626.89 1268.98 626.89 1268.53C626.89 1268.08 627.25 1267.71 627.7 1267.71C628.16 1267.71 634.68 1261.75 642.21 1254.47C649.73 1247.19 660.07 1237.7 665.18 1233.39C670.29 1229.08 674.97 1225.19 675.58 1224.74C676.18 1224.3 679.64 1221.55 683.25 1218.65C686.86 1215.74 693.01 1211.18 696.93 1208.51C700.84 1205.84 704.29 1203.38 704.59 1203.05C704.89 1202.71 708.83 1199.97 713.34 1196.96C717.86 1193.94 723.77 1189.97 726.48 1188.14C729.19 1186.31 733.58 1183.38 736.24 1181.64C738.9 1179.89 741.91 1177.97 742.93 1177.37C743.95 1176.77 747.19 1174.91 750.13 1173.23C753.07 1171.56 756.96 1169.24 758.76 1168.07C760.57 1166.9 763.77 1165.01 765.88 1163.87C767.98 1162.74 773.4 1159.74 777.92 1157.22C782.43 1154.7 787.36 1152.11 788.86 1151.47C790.37 1150.83 792.58 1149.79 793.79 1149.15C794.99 1148.52 797.45 1147.17 799.26 1146.16C801.06 1145.15 803.53 1143.77 804.73 1143.09C805.93 1142.41 810.37 1140.3 814.58 1138.4C818.79 1136.51 825.69 1133.35 829.9 1131.39C834.12 1129.43 844.21 1125.26 852.34 1122.11C860.46 1118.96 868.1 1115.98 869.3 1115.49C870.51 1115 874.2 1113.6 877.51 1112.39C880.82 1111.18 886.98 1109.19 891.19 1107.97C895.41 1106.75 903.29 1104.75 908.7 1103.53C914.12 1102.3 920.77 1100.81 923.48 1100.21C926.19 1099.6 931.6 1098.63 935.52 1098.05C939.43 1097.46 942.88 1097.02 943.18 1097.06C943.48 1097.11 949.02 1097.08 955.49 1097.01L967.26 1096.88L967.26 1061.84C953.26 1062.1 945.5 1062.53 940.99 1062.96ZM605.6 1361.89C605.26 1362.49 607.33 1364.95 610.19 1367.35C613.05 1369.76 617.34 1373.58 619.72 1375.84C623.55 1379.49 624.09 1380.64 624.47 1385.98C624.88 1391.75 624.71 1392.21 620.4 1396.93C617.93 1399.64 616.28 1402.19 616.74 1402.6C617.2 1403.01 625.71 1404.62 635.64 1406.17C645.57 1407.72 658.13 1409.79 663.55 1410.77C668.96 1411.74 675.61 1412.73 678.32 1412.95C681.03 1413.17 685.71 1413.6 688.72 1413.91C691.73 1414.21 697.89 1414.93 702.4 1415.51C706.91 1416.08 713.07 1416.82 716.08 1417.14C719.09 1417.47 730.17 1418.74 740.71 1419.97C751.24 1421.2 770.45 1422.72 783.39 1423.35C796.33 1423.98 808.64 1424.67 810.75 1424.89C812.86 1425.1 823.69 1425.81 834.83 1426.46C845.96 1427.12 862.95 1428.19 872.59 1428.84C882.22 1429.49 907.33 1430.09 928.4 1430.17L966.71 1430.33L966.71 1393.09C956.53 1392.58 948.9 1393.18 943.18 1394.1C937.46 1395.02 927.12 1396.38 920.19 1397.13C912.28 1397.99 890.74 1398.51 862.19 1398.53C833.35 1398.55 811.38 1398.05 801.99 1397.16C793.87 1396.38 779.83 1395.01 770.8 1394.1C761.77 1393.19 748.48 1391.7 741.25 1390.8C734.03 1389.89 722.95 1388.17 716.63 1386.97C710.31 1385.77 698.49 1383.56 690.36 1382.07C682.23 1380.57 673.74 1378.87 671.48 1378.28C669.22 1377.7 665.28 1376.71 662.73 1376.08C660.17 1375.46 656.6 1374.73 654.79 1374.46C652.99 1374.19 648.06 1372.93 643.85 1371.66C639.63 1370.38 635.2 1368.96 634 1368.5C632.79 1368.03 629.84 1367.16 627.43 1366.56C625.02 1365.96 620.59 1364.85 617.58 1364.09C614.57 1363.34 611.25 1362.29 610.19 1361.76C609.14 1361.23 607.81 1360.79 607.24 1360.79C606.66 1360.79 605.93 1361.28 605.6 1361.89Z" />
			<path id="Path 0" class="shp4" d="M956.31 1079.36L956.31 1096.88C974.55 1097.08 980.09 1097.11 980.39 1097.06C980.69 1097.02 984.14 1097.46 988.05 1098.05C991.96 1098.63 997.38 1099.6 1000.09 1100.21C1002.8 1100.81 1009.45 1102.3 1014.86 1103.53C1020.28 1104.75 1028.16 1106.75 1032.37 1107.97C1036.59 1109.19 1042.74 1111.18 1046.06 1112.39C1049.37 1113.6 1053.06 1115 1054.26 1115.49C1055.47 1115.98 1063.1 1118.96 1071.23 1122.1C1079.35 1125.25 1089.2 1129.31 1093.12 1131.12C1097.03 1132.93 1106.14 1137.28 1113.36 1140.8C1120.59 1144.31 1127.73 1147.89 1129.23 1148.74C1130.74 1149.6 1133.2 1150.83 1134.71 1151.47C1136.21 1152.11 1141.14 1154.7 1145.65 1157.22C1150.16 1159.74 1155.58 1162.74 1157.69 1163.87C1159.8 1165.01 1163 1166.9 1164.8 1168.07C1166.61 1169.24 1170.49 1171.56 1173.44 1173.23C1176.38 1174.91 1179.62 1176.77 1180.64 1177.37C1181.65 1177.97 1184.66 1179.89 1187.32 1181.64C1189.99 1183.38 1194.38 1186.31 1197.09 1188.14C1199.8 1189.97 1205.71 1193.94 1210.22 1196.96C1214.74 1199.97 1218.68 1202.71 1218.98 1203.05C1219.28 1203.38 1222.73 1205.84 1226.64 1208.51C1230.55 1211.18 1236.71 1215.74 1240.32 1218.65C1243.93 1221.55 1247.38 1224.3 1247.99 1224.74C1248.6 1225.19 1253.27 1229.08 1258.39 1233.39C1263.5 1237.7 1273.84 1247.19 1281.36 1254.47C1288.89 1261.75 1295.41 1267.71 1295.86 1267.71C1296.31 1267.71 1296.68 1268.08 1296.68 1268.53C1296.67 1268.98 1300.98 1274.28 1306.25 1280.31C1311.52 1286.33 1318.61 1295.45 1321.99 1300.57C1325.38 1305.68 1329.01 1311.84 1330.05 1314.25C1331.09 1316.66 1332.62 1322.33 1333.44 1326.84C1334.27 1331.36 1334.96 1338.63 1334.97 1343C1334.98 1347.57 1334.53 1350.94 1333.89 1350.94C1333.29 1350.94 1332.8 1352.17 1332.8 1353.67C1332.8 1355.18 1332.43 1356.59 1331.98 1356.81C1331.53 1357.04 1330.79 1358.52 1330.34 1360.1C1329.89 1361.68 1326.68 1365.83 1323.22 1369.3C1319.76 1372.78 1314.59 1377.22 1311.73 1379.16C1308.87 1381.1 1306.04 1383.68 1305.44 1384.88C1304.84 1386.09 1304.34 1388.3 1304.34 1389.81C1304.34 1391.32 1304.96 1393.82 1305.71 1395.37C1306.46 1396.92 1308.8 1399.2 1310.91 1400.44C1313.02 1401.67 1317.94 1403.61 1321.86 1404.74C1326.34 1406.03 1332.41 1406.78 1338.27 1406.77C1343.59 1406.76 1350.16 1405.99 1353.59 1404.98C1356.91 1404.01 1361.32 1402.41 1363.4 1401.44C1365.49 1400.46 1369.92 1397.61 1373.25 1395.1C1376.59 1392.59 1382.14 1387.66 1385.59 1384.15C1389.03 1380.64 1394.1 1373.82 1396.85 1369C1401.12 1361.49 1402.01 1358.84 1403.1 1350.39C1404.05 1342.91 1404.05 1337.62 1403.08 1328.49C1402.07 1319.07 1401.07 1314.95 1398.49 1309.6C1396.67 1305.83 1395.18 1302.01 1395.18 1301.11C1395.18 1300.21 1394.2 1298.48 1392.99 1297.28C1391.79 1296.07 1390.1 1293.73 1389.23 1292.08C1388.36 1290.42 1386.35 1287.59 1384.77 1285.78C1383.18 1283.97 1380.98 1281.02 1379.87 1279.21C1378.77 1277.4 1374.63 1272.47 1370.68 1268.26C1366.73 1264.04 1363.49 1259.98 1363.47 1259.22C1363.46 1258.47 1362.2 1257.24 1360.68 1256.49C1359.15 1255.73 1357.94 1254.87 1357.98 1254.57C1358.02 1254.27 1352.99 1249 1346.79 1242.86C1340.6 1236.73 1333.65 1230.07 1331.36 1228.08C1329.06 1226.09 1325.34 1222.73 1323.11 1220.62C1320.87 1218.52 1317.83 1215.79 1316.34 1214.58C1314.86 1213.36 1312.42 1211.52 1310.91 1210.49C1309.41 1209.46 1306.8 1207.5 1305.13 1206.14C1303.45 1204.77 1300.86 1202.54 1299.38 1201.19C1297.9 1199.83 1295.21 1197.98 1293.4 1197.08C1291.59 1196.18 1290.12 1194.94 1290.12 1194.34C1290.12 1193.74 1288.71 1192.38 1287 1191.33C1285.29 1190.28 1280.23 1186.95 1275.77 1183.94C1271.31 1180.93 1266.18 1177.36 1264.38 1176.01C1262.59 1174.66 1260.59 1173.18 1259.96 1172.73C1259.32 1172.27 1257.85 1171.28 1256.68 1170.52C1255.51 1169.77 1253.56 1168.72 1252.36 1168.2C1251.15 1167.68 1249.43 1166.43 1248.53 1165.42C1247.62 1164.41 1246.52 1163.6 1246.07 1163.63C1245.61 1163.66 1242.66 1161.98 1239.5 1159.9C1236.34 1157.82 1233.24 1155.73 1232.6 1155.25C1231.97 1154.77 1230.25 1153.68 1228.77 1152.83C1227.3 1151.98 1224.61 1150.44 1222.81 1149.41C1221 1148.38 1215.34 1145.1 1210.22 1142.11C1205.11 1139.13 1199.93 1136.13 1198.73 1135.43C1197.53 1134.74 1194.08 1132.99 1191.07 1131.55C1188.06 1130.1 1181.9 1126.87 1177.39 1124.36C1172.87 1121.85 1167.46 1119.02 1165.35 1118.07C1163.24 1117.12 1156.47 1113.94 1150.3 1110.99C1144.13 1108.05 1138.84 1105.64 1138.54 1105.64C1138.23 1105.64 1134.42 1104.11 1130.05 1102.24C1125.69 1100.36 1120.64 1098.19 1118.84 1097.4C1117.03 1096.62 1110.14 1093.92 1103.51 1091.41C1096.89 1088.89 1089.75 1086.16 1087.64 1085.34C1085.54 1084.51 1075.93 1081.59 1066.3 1078.85C1056.67 1076.1 1047.07 1073.37 1044.96 1072.78C1042.85 1072.18 1036.21 1070.73 1030.19 1069.56C1024.17 1068.38 1013.09 1066.63 1005.56 1065.67C998.04 1064.71 987.2 1063.47 981.48 1062.92C975.76 1062.37 967.76 1061.9 963.7 1061.88L956.31 1061.84L956.31 1079.36ZM1313.1 1361.82C1312.2 1362.32 1309.49 1363.21 1307.08 1363.8C1304.67 1364.39 1300.24 1365.5 1297.23 1366.27C1294.22 1367.03 1290.77 1368.03 1289.57 1368.5C1288.37 1368.96 1283.93 1370.38 1279.72 1371.66C1275.51 1372.93 1270.58 1374.19 1268.77 1374.46C1266.97 1374.73 1263.4 1375.46 1260.84 1376.08C1258.28 1376.71 1254.34 1377.7 1252.08 1378.28C1249.83 1378.87 1241.33 1380.57 1233.21 1382.07C1225.08 1383.56 1213.26 1385.77 1206.94 1386.97C1200.62 1388.17 1189.54 1389.89 1182.31 1390.8C1175.09 1391.7 1161.79 1393.19 1152.76 1394.1C1143.73 1395.01 1129.7 1396.38 1121.57 1397.16C1112.19 1398.05 1090.22 1398.55 1061.38 1398.53C1032.82 1398.51 1011.29 1397.99 1003.37 1397.13C996.45 1396.38 986.11 1395.02 980.39 1394.1C974.67 1393.18 967.04 1392.58 963.42 1392.76L956.86 1393.09C956.31 1429.66 956.33 1429.78 958.77 1430.37C960.13 1430.69 977.49 1430.74 997.35 1430.48C1017.22 1430.22 1041.35 1429.48 1050.98 1428.83C1060.61 1428.18 1077.6 1427.12 1088.74 1426.46C1099.87 1425.81 1110.71 1425.1 1112.82 1424.89C1114.92 1424.67 1127.24 1423.98 1140.18 1423.35C1153.12 1422.72 1172.33 1421.2 1182.86 1419.97C1193.4 1418.74 1204.48 1417.47 1207.49 1417.14C1210.5 1416.82 1216.65 1416.08 1221.17 1415.51C1225.68 1414.93 1231.84 1414.21 1234.85 1413.91C1237.86 1413.6 1242.54 1413.17 1245.24 1412.95C1247.95 1412.73 1254.6 1411.74 1260.02 1410.77C1265.44 1409.79 1278 1407.72 1287.93 1406.17C1297.86 1404.62 1306.36 1403.01 1306.82 1402.6C1307.29 1402.19 1305.64 1399.64 1303.17 1396.93C1298.86 1392.21 1298.69 1391.75 1299.1 1385.98C1299.47 1380.64 1300.02 1379.49 1303.85 1375.84C1306.23 1373.58 1310.51 1369.76 1313.37 1367.35C1316.23 1364.95 1318.33 1362.49 1318.02 1361.89C1317.72 1361.28 1316.86 1360.82 1316.11 1360.86C1315.36 1360.89 1314 1361.33 1313.1 1361.82Z" />
			<path id="Path 0" class="shp6" d="M739.77 1085.48C738.96 1087.23 737.57 1091.38 736.67 1094.69C735.78 1098 734.42 1102.93 733.65 1105.64C732.89 1108.35 730.91 1115.5 729.26 1121.52C727.62 1127.54 724.33 1139.37 721.95 1147.8C719.58 1156.23 716.86 1166.09 715.91 1169.7C714.96 1173.32 713.32 1179.23 712.27 1182.84C711.21 1186.46 709.32 1192.86 708.05 1197.08C706.78 1201.3 702.27 1217.31 698.03 1232.67C693.78 1248.03 689.55 1263.3 688.63 1266.62C687.7 1269.93 685.55 1277.32 683.84 1283.04C682.13 1288.76 678.91 1299.85 676.67 1307.68C674.43 1315.51 671.63 1325.37 670.44 1329.58C669.09 1334.41 668.55 1338.66 668.97 1341.08C669.35 1343.19 670.04 1350.33 670.51 1356.96C671.1 1365.27 672.02 1370.32 673.47 1373.25C675.26 1376.84 676.43 1377.72 681.06 1379.01C684.07 1379.84 689.24 1380.95 692.55 1381.46C695.86 1381.97 699.68 1382.95 701.03 1383.64C702.39 1384.32 704.85 1384.88 706.5 1384.88C708.16 1384.88 712.96 1385.81 717.17 1386.94C721.39 1388.08 728.28 1389.25 732.5 1389.55C736.71 1389.85 741.39 1390.72 742.89 1391.48C744.4 1392.25 750.31 1393.54 756.03 1394.35C761.75 1395.17 767.9 1396.14 769.71 1396.51C772.68 1397.12 773.12 1396.83 774.32 1393.5C775.3 1390.77 775.39 1386.82 774.63 1378.31C774.07 1371.99 772.87 1362.13 771.97 1356.41C771.07 1350.69 770.32 1342.19 770.29 1337.52C770.27 1332.85 769.74 1327.68 769.1 1326.02C768.46 1324.37 767.5 1316.36 766.96 1308.23C766.42 1300.1 765.7 1292.46 765.36 1291.25C765.02 1290.05 764 1280.93 763.08 1271C762.17 1261.06 761.2 1250.71 760.91 1248C760.63 1245.29 759.89 1238.39 759.27 1232.67C758.64 1226.95 757.41 1216.48 756.53 1209.4C755.65 1202.32 754.93 1193.08 754.93 1188.87C754.93 1184.65 754.44 1179.97 753.84 1178.46C753.24 1176.96 752.22 1169.69 751.59 1162.31C750.95 1154.93 749.72 1144.95 748.85 1140.14C747.98 1135.32 747.27 1126.82 747.27 1121.25C747.27 1115.68 746.79 1109.02 746.21 1106.46C745.62 1103.9 744.65 1097.87 744.05 1093.05C743.45 1088.23 742.56 1083.84 742.09 1083.29C741.61 1082.74 740.57 1083.72 739.77 1085.48ZM1181.06 1084.93C1180.38 1086.39 1179.23 1092.26 1178.5 1097.98C1177.76 1103.7 1176.78 1114.79 1176.32 1122.62C1175.86 1130.45 1174.95 1139.56 1174.31 1142.87C1173.66 1146.19 1172.61 1154.93 1171.98 1162.31C1171.34 1169.69 1170.33 1176.96 1169.73 1178.46C1169.13 1179.97 1168.63 1184.65 1168.63 1188.87C1168.63 1193.08 1167.91 1202.32 1167.04 1209.4C1166.16 1216.48 1164.93 1226.95 1164.3 1232.67C1163.67 1238.39 1162.93 1245.29 1162.65 1248C1162.37 1250.71 1161.39 1261.06 1160.48 1271C1159.57 1280.93 1158.55 1290.05 1158.21 1291.25C1157.87 1292.46 1157.15 1300.1 1156.61 1308.23C1156.07 1316.36 1155.1 1324.37 1154.47 1326.02C1153.83 1327.68 1153.29 1332.85 1153.27 1337.52C1153.25 1342.19 1152.5 1350.69 1151.59 1356.41C1150.69 1362.13 1149.5 1371.99 1148.94 1378.31C1148.18 1386.82 1148.26 1390.77 1149.25 1393.5C1150.45 1396.83 1150.89 1397.12 1153.86 1396.51C1155.66 1396.14 1161.82 1395.17 1167.54 1394.35C1173.26 1393.54 1179.17 1392.25 1180.67 1391.48C1182.18 1390.72 1186.86 1389.85 1191.07 1389.55C1195.28 1389.25 1202.18 1388.08 1206.39 1386.94C1210.61 1385.81 1215.41 1384.88 1217.06 1384.88C1218.72 1384.88 1221.18 1384.32 1222.53 1383.64C1223.89 1382.95 1227.71 1381.97 1231.02 1381.46C1234.33 1380.95 1239.5 1379.84 1242.51 1379.01C1247.14 1377.72 1248.3 1376.84 1250.09 1373.25C1251.55 1370.32 1252.47 1365.27 1253.06 1356.96C1253.53 1350.33 1254.22 1343.19 1254.59 1341.08C1255.02 1338.66 1254.48 1334.41 1253.12 1329.58C1251.94 1325.37 1249.14 1315.51 1246.9 1307.68C1244.66 1299.85 1241.43 1288.76 1239.73 1283.04C1238.02 1277.32 1235.87 1269.93 1234.94 1266.62C1234.01 1263.3 1229.78 1248.03 1225.54 1232.67C1221.29 1217.31 1216.78 1201.3 1215.52 1197.08C1214.25 1192.86 1212.35 1186.46 1211.3 1182.84C1210.25 1179.23 1208.61 1173.32 1207.67 1169.7C1206.72 1166.09 1204.25 1157.22 1202.17 1149.99C1200.09 1142.76 1197.34 1132.66 1196.06 1127.54C1194.77 1122.42 1192.82 1115.28 1191.71 1111.67C1190.6 1108.05 1188.84 1101.89 1187.79 1097.98C1186.75 1094.06 1185.38 1089.38 1184.75 1087.57C1184.12 1085.77 1183.31 1083.84 1182.95 1083.29C1182.58 1082.74 1181.73 1083.48 1181.06 1084.93Z" />
		</g>
	</g>
</svg>