<svg id="Layer_1" data-name="Layer 1" xmlns="http://www.w3.org/2000/svg" viewBox="0 0 200 200"><defs><style>.cls-1{fill:#231f20;}</style></defs><title>Wondicon - UI (Free)</title><path class="cls-1" d="M137.5,175.35H28.78a5,5,0,0,1,0-10H137.5a5,5,0,0,1,0,10Z"/><path class="cls-1" d="M99.47,92.15a33.92,33.92,0,1,1,33.92-33.92A34,34,0,0,1,99.47,92.15Zm0-57.84a23.92,23.92,0,1,0,23.92,23.92A23.95,23.95,0,0,0,99.47,34.31Z"/><path class="cls-1" d="M49.47,175.35a5,5,0,0,1-5-5V129.82c0-19,24.16-33.92,55-33.92,22.44,0,42.38,8.12,50.8,20.7a5,5,0,0,1-8.31,5.56c-6.52-9.73-23.59-16.26-42.49-16.26-24.39,0-45,10.95-45,23.92v40.53A5,5,0,0,1,49.47,175.35Z"/><path class="cls-1" d="M170.69,155H140a5,5,0,0,1,0-10h30.69a5,5,0,0,1,0,10Z"/><path class="cls-1" d="M155.34,170.34a5,5,0,0,1-5-5V134.66a5,5,0,0,1,10,0v30.68A5,5,0,0,1,155.34,170.34Z"/></svg>